<svg width="96" height="32" viewBox="0 0 96 32" fill="none" xmlns="http://www.w3.org/2000/svg">
<mask id="mask0_148_58" style="mask-type:luminance" maskUnits="userSpaceOnUse" x="0" y="0" width="32" height="32">
<path d="M0.00714111 0H31.8615V32H0.00714111V0Z" fill="white"/>
</mask>
<g mask="url(#mask0_148_58)">
<path d="M29.202 30.72C29.202 31.4304 29.8036 32 30.5539 32C31.2976 32 31.8992 31.4304 31.8992 30.72V15.0975C31.8992 10.9442 30.1147 7.16792 27.2217 4.42875C24.3352 1.69583 20.3468 0 15.9531 0C11.5594 0 7.57147 1.69583 4.68502 4.42875C1.79197 7.16167 0.00747299 10.9375 0.00747299 15.0975V18.0225C0.00747299 18.7262 0.609055 19.3025 1.35938 19.3025C2.10311 19.3025 2.70469 18.7262 2.70469 18.0225V15.0975C2.70469 11.6417 4.1983 8.51208 6.59142 6.23375C8.99115 3.96792 12.3031 2.56 15.9531 2.56C19.6101 2.56 22.9155 3.96792 25.3219 6.23375C27.715 8.51208 29.202 11.6417 29.202 15.0975V30.72ZM12.675 21.6254C12.675 20.9217 12.0734 20.3521 11.3231 20.3521C10.5794 20.3521 9.97779 20.9217 9.97779 21.6254V24.8896C9.97779 25.6 10.5794 26.1696 11.3231 26.1696C12.0734 26.1696 12.675 25.6 12.675 24.8896V21.6254ZM7.69293 23.5904C7.69293 22.8863 7.09135 22.3167 6.34806 22.3167C5.59774 22.3167 4.99615 22.8863 4.99615 23.5904V28.4546C4.99615 29.165 5.59774 29.7346 6.34806 29.7346C7.09135 29.7346 7.69293 29.165 7.69293 28.4546V23.5904ZM2.70469 21.6254C2.70469 20.9217 2.10311 20.3521 1.35938 20.3521C0.609055 20.3521 0.00747299 20.9217 0.00747299 21.6254V30.72C0.00747299 31.4304 0.609055 32 1.35938 32C2.10311 32 2.70469 31.4304 2.70469 30.72V21.6254ZM19.1912 28.4608C19.1912 28.8254 19.3465 29.1583 19.6035 29.395C19.8535 29.6321 20.1981 29.7729 20.5836 29.7729C20.9691 29.7729 21.3203 29.6254 21.5636 29.395C21.8206 29.1521 21.976 28.8254 21.976 28.4608C21.976 28.1025 21.8206 27.7758 21.5636 27.5329C21.3137 27.2958 20.9691 27.1425 20.5836 27.1425C20.1981 27.1425 19.8469 27.2958 19.6035 27.5329C19.3465 27.7696 19.1912 28.1025 19.1912 28.4608ZM9.93071 28.4608C9.93071 28.8254 10.0861 29.1583 10.3431 29.395C10.5996 29.6321 10.9446 29.7729 11.3231 29.7729C11.7082 29.7729 12.0598 29.6254 12.3097 29.395C12.5602 29.1521 12.7089 28.8254 12.7089 28.4608C12.7089 28.1025 12.5531 27.7758 12.3097 27.5329C12.0532 27.2958 11.7082 27.1425 11.3231 27.1425C10.9446 27.1425 10.5996 27.2958 10.3431 27.5329C10.0861 27.7696 9.93071 28.1025 9.93071 28.4608ZM19.2383 24.8896C19.2383 25.6 19.8399 26.1696 20.5836 26.1696C21.3339 26.1696 21.9355 25.6 21.9355 24.8896V21.6254C21.9355 20.9217 21.3339 20.3521 20.5836 20.3521C19.8399 20.3521 19.2383 20.9217 19.2383 21.6254V24.8896ZM19.2383 18.0225C19.2383 18.7262 19.8399 19.3025 20.5836 19.3025C21.3339 19.3025 21.9355 18.7262 21.9355 18.0225V15.0975C21.9355 13.5487 21.2661 12.1279 20.1778 11.1042C19.0966 10.08 17.5959 9.44 15.9531 9.44C14.3108 9.44 12.8167 10.0738 11.7355 11.1042C10.6537 12.1346 9.97779 13.5487 9.97779 15.0975V18.0225C9.97779 18.7262 10.5794 19.3025 11.3231 19.3025C12.0734 19.3025 12.675 18.7262 12.675 18.0225V15.0975C12.675 14.2463 13.0469 13.4721 13.6414 12.9088C14.2364 12.3454 15.0545 11.9938 15.9531 11.9938C16.8592 11.9938 17.6769 12.3454 18.2719 12.9088C18.8669 13.4721 19.2383 14.2463 19.2383 15.0975V18.0225ZM24.2133 28.4608C24.2133 29.1713 24.8219 29.7408 25.5652 29.7408C26.3089 29.7408 26.9171 29.1713 26.9171 28.4608V23.5967C26.9171 22.8929 26.3089 22.3233 25.5652 22.3233C24.8219 22.3233 24.2133 22.8929 24.2133 23.5967V28.4608ZM24.2133 19.9937C24.2133 20.6975 24.8219 21.2671 25.5652 21.2671C26.3089 21.2671 26.9171 20.6975 26.9171 19.9937V15.0975C26.9171 12.2433 25.6801 9.645 23.6997 7.76333C21.7124 5.88167 18.9681 4.71667 15.9465 4.71667C12.925 4.71667 10.1873 5.88167 8.19989 7.76333C6.21296 9.645 4.98251 12.2433 4.98251 15.0975V19.9937C4.98251 20.6975 5.58409 21.2671 6.33442 21.2671C7.07815 21.2671 7.67973 20.6975 7.67973 19.9937V15.0975C7.67973 12.9471 8.60564 10.995 10.1063 9.57458C11.6069 8.15375 13.6687 7.27667 15.9399 7.27667C18.2177 7.27667 20.2861 8.15375 21.7801 9.57458C23.2738 10.995 24.2001 12.9471 24.2001 15.0975V19.9937H24.2133Z" fill="#0048E8"/>
</g>
<path d="M49.0158 27.7026C47.3001 27.7026 45.7618 27.3772 44.401 26.7244C43.0383 26.0677 41.9655 25.0817 41.1825 23.7663C40.3976 22.4469 40.0071 20.8002 40.0071 18.8281C40.0071 16.8993 40.3937 15.2526 41.1667 13.8899C41.9398 12.5291 43.0048 11.4898 44.3616 10.7739C45.7224 10.0541 47.2744 9.69318 49.0158 9.69318C50.7513 9.69318 52.2856 10.0541 53.6227 10.7739C54.9637 11.4898 56.0208 12.5291 56.7939 13.8899C57.5669 15.2526 57.9535 16.8993 57.9535 18.8281C57.9535 20.8002 57.5669 22.4469 56.7939 23.7663C56.0208 25.0817 54.9578 26.0677 53.6069 26.7244C52.2599 27.3772 50.7296 27.7026 49.0158 27.7026ZM49.0158 23.9083C50.278 23.9083 51.3212 23.4586 52.1475 22.5593C52.9719 21.6561 53.386 20.3565 53.386 18.6624C53.386 17.0591 52.9778 15.7969 52.1633 14.8759C51.3469 13.951 50.2977 13.4875 49.0158 13.4875C47.7063 13.4875 46.6493 13.951 45.8446 14.8759C45.04 15.7969 44.6377 17.0591 44.6377 18.6624C44.6377 20.3565 45.0499 21.6561 45.8762 22.5593C46.7005 23.4586 47.7477 23.9083 49.0158 23.9083Z" fill="#152039"/>
<path d="M62.1936 27.7026C61.9609 27.7026 61.6453 27.6908 61.247 27.6711C60.8525 27.6494 60.5252 27.6178 60.2688 27.5764C59.7738 27.4719 59.5273 27.1721 59.5273 26.6771C59.5273 24.8115 59.5371 22.8748 59.5588 20.8712C59.5785 18.8675 59.6062 16.9013 59.6377 14.9706C59.6732 13.0418 59.7284 11.2354 59.8034 9.55117C59.8763 7.86894 59.9552 6.42732 60.04 5.22827C60.1071 4.76087 60.3753 4.49266 60.8446 4.42364C61.0813 4.38223 61.3495 4.35067 61.6493 4.32898C61.949 4.30926 62.2271 4.29742 62.4855 4.29742C62.7852 4.29742 63.1363 4.30926 63.5425 4.32898C63.9527 4.35067 64.2643 4.38223 64.4812 4.42364C64.7179 4.44533 64.9033 4.54788 65.0413 4.73129C65.1833 4.91667 65.2326 5.12374 65.1912 5.35448C65.1005 6.06445 64.9861 6.97754 64.8441 8.09179C64.7061 9.20802 64.5838 10.3597 64.4734 11.547C64.3669 12.7361 64.3156 13.8031 64.3156 14.7497C64.3156 15.2861 64.4536 15.7259 64.7337 16.0671C65.0117 16.4102 65.345 16.5798 65.7355 16.5798C66.7176 16.5798 67.6327 16.3077 68.4807 15.7594C69.3268 15.2131 70.0288 14.5051 70.5869 13.6374C71.1431 12.7697 71.4547 11.8546 71.5178 10.8922C71.5178 10.4623 71.7643 10.1941 72.2593 10.0876C72.5591 10.0462 72.8845 10.0146 73.2375 9.99292C73.5944 9.96728 73.9021 9.95348 74.1604 9.95348C74.3971 9.95348 74.6456 9.9594 74.9098 9.96926C75.1781 9.98109 75.464 10.0205 75.7697 10.0876C76.3002 10.1941 76.5546 10.4623 76.5349 10.8922C76.5132 12.1544 76.3101 13.2706 75.9275 14.2369C75.5429 15.1993 74.8665 15.9921 73.9001 16.6114C72.9377 17.2326 71.575 17.6822 69.8139 17.9603C69.5338 18.0037 69.3958 18.1003 69.3958 18.2522C69.3958 18.4001 69.5338 18.4967 69.8139 18.5441C71.7426 18.7768 73.2454 19.2304 74.3182 19.9088C75.391 20.5832 76.1661 21.4865 76.6453 22.6224C77.1285 23.7584 77.4361 25.1526 77.5683 26.8033C77.588 27.2352 77.3198 27.5034 76.7636 27.6079C76.4422 27.6494 76.1365 27.675 75.8486 27.6868C75.5587 27.6967 75.3161 27.7026 75.1228 27.7026C74.8862 27.7026 74.547 27.6967 74.1052 27.6868C73.6674 27.675 73.269 27.6494 72.9062 27.6079C72.4112 27.5034 72.143 27.2451 72.1015 26.8349C72.0582 25.8094 71.8274 24.8844 71.4073 24.0581C70.9912 23.2338 70.4647 22.5258 69.8296 21.9361C69.1986 21.3484 68.5123 20.8929 67.7708 20.5714C67.0332 20.246 66.3114 20.0823 65.6014 20.0823C65.2583 20.0823 64.9644 20.2223 64.7179 20.5004C64.4753 20.7804 64.3412 21.1354 64.3156 21.5654C64.2939 22.4232 64.3097 23.2594 64.3629 24.0739C64.4201 24.8904 64.5128 25.7581 64.639 26.6771C64.6804 26.9354 64.6252 27.1465 64.4734 27.3082C64.3254 27.466 64.1342 27.5665 63.8975 27.6079C63.6648 27.6277 63.3808 27.6494 63.0455 27.6711C62.7142 27.6908 62.4302 27.7026 62.1936 27.7026Z" fill="#152039"/>
<path d="M84.5782 27.7026C82.9473 27.7026 81.6319 27.3161 80.634 26.543C79.64 25.7699 79.1431 24.4743 79.1431 22.654C79.1431 21.0447 79.715 19.7747 80.8628 18.8438C82.0145 17.909 83.5961 17.2701 85.6116 16.9269C87.4516 16.6706 88.7473 16.4063 89.5007 16.1381C90.2521 15.8699 90.6287 15.4478 90.6287 14.868C90.6287 14.5269 90.3921 14.2054 89.9188 13.9056C89.4455 13.6059 88.6408 13.456 87.5049 13.456C86.5425 13.456 85.5446 13.6059 84.5151 13.9056C83.4837 14.2054 82.5844 14.6984 81.8173 15.3808C81.5806 15.7279 81.3065 15.8285 80.9969 15.6805C80.6853 15.5287 80.5413 15.2151 80.563 14.7418C80.5827 14.5052 80.6143 14.1798 80.6577 13.7636C80.6991 13.3436 80.7464 12.9196 80.7997 12.4936C80.8509 12.0637 80.8904 11.7402 80.918 11.5233C80.9811 11.0145 81.1941 10.6832 81.557 10.5294C83.3338 9.97322 85.2645 9.69318 87.3471 9.69318C89.8083 9.69318 91.7193 10.2257 93.0821 11.2867C94.4428 12.3496 95.2317 14.0476 95.4486 16.3826C95.5117 17.1991 95.5748 18.2049 95.6379 19.4039C95.705 20.603 95.772 21.8257 95.8351 23.0721C95.8982 24.3145 95.9495 25.4288 95.9929 26.4168C95.9929 26.9749 95.6931 27.3062 95.0936 27.4107C94.8767 27.4739 94.6085 27.5153 94.289 27.537C93.9675 27.5567 93.6579 27.5685 93.3581 27.5685C93.0998 27.5685 92.7705 27.5567 92.3721 27.537C91.9777 27.5153 91.6503 27.4739 91.3939 27.4107C91.1139 27.3693 90.889 27.2451 90.7155 27.04C90.5459 26.8349 90.4828 26.5943 90.5262 26.3142C90.5676 26.1052 90.6149 25.8291 90.6682 25.486C90.7254 25.1389 90.7648 24.7957 90.7865 24.4526C90.8279 24.1528 90.7569 23.9773 90.5735 23.924C90.394 23.8668 90.2382 23.9773 90.1081 24.2553C89.619 25.3085 88.8578 26.1466 87.8283 26.7718C86.7969 27.393 85.7142 27.7026 84.5782 27.7026ZM86.7634 23.711C87.2998 23.711 87.8618 23.573 88.4515 23.2929C89.0392 23.0149 89.5362 22.6126 89.9424 22.086C90.3526 21.5614 90.5577 20.9244 90.5577 20.177C90.5577 19.6623 90.4019 19.2383 90.0923 18.9069C89.7807 18.5756 89.2502 18.41 88.4988 18.41C87.7514 18.41 87.0335 18.55 86.3453 18.8281C85.6609 19.1081 85.1028 19.4887 84.6729 19.9719C84.2469 20.4511 84.0339 21.0211 84.0339 21.6837C84.0339 22.4154 84.2469 22.936 84.6729 23.2456C85.1028 23.5572 85.801 23.711 86.7634 23.711Z" fill="#152039"/>
</svg>
