<svg xmlns="http://www.w3.org/2000/svg" xmlns:xlink="http://www.w3.org/1999/xlink" width="302" zoomAndPan="magnify" viewBox="0 0 226.5 123.000003" height="164" preserveAspectRatio="xMidYMid meet" version="1.0"><defs><g/><clipPath id="3b4c2420a7"><path d="M 0.664062 21.074219 L 74 21.074219 L 74 98.445312 L 0.664062 98.445312 Z M 0.664062 21.074219 " clip-rule="nonzero"/></clipPath></defs><g fill="#ffffff" fill-opacity="1"><g transform="translate(89.737607, 82.392206)"><g><path d="M 18.875 0.5 C 15.5 0.5 12.46875 -0.140625 9.78125 -1.421875 C 7.101562 -2.710938 4.992188 -4.65625 3.453125 -7.25 C 1.910156 -9.851562 1.140625 -13.097656 1.140625 -16.984375 C 1.140625 -20.785156 1.898438 -24.023438 3.421875 -26.703125 C 4.941406 -29.390625 7.039062 -31.4375 9.71875 -32.84375 C 12.40625 -34.257812 15.457031 -34.96875 18.875 -34.96875 C 22.300781 -34.96875 25.332031 -34.257812 27.96875 -32.84375 C 30.613281 -31.4375 32.695312 -29.390625 34.21875 -26.703125 C 35.738281 -24.023438 36.5 -20.785156 36.5 -16.984375 C 36.5 -13.097656 35.738281 -9.851562 34.21875 -7.25 C 32.695312 -4.65625 30.601562 -2.710938 27.9375 -1.421875 C 25.28125 -0.140625 22.257812 0.5 18.875 0.5 Z M 18.875 -6.96875 C 21.375 -6.96875 23.4375 -7.851562 25.0625 -9.625 C 26.6875 -11.40625 27.5 -13.960938 27.5 -17.296875 C 27.5 -20.460938 26.695312 -22.953125 25.09375 -24.765625 C 23.488281 -26.585938 21.414062 -27.5 18.875 -27.5 C 16.300781 -27.5 14.222656 -26.585938 12.640625 -24.765625 C 11.054688 -22.953125 10.265625 -20.460938 10.265625 -17.296875 C 10.265625 -13.960938 11.078125 -11.40625 12.703125 -9.625 C 14.328125 -7.851562 16.382812 -6.96875 18.875 -6.96875 Z M 18.875 -6.96875 "/></g></g></g><g fill="#ffffff" fill-opacity="1"><g transform="translate(127.371447, 82.392206)"><g><path d="M 7.03125 0.25 C 6.5625 0.25 5.9375 0.226562 5.15625 0.1875 C 4.375 0.144531 3.734375 0.0820312 3.234375 0 C 2.265625 -0.207031 1.78125 -0.800781 1.78125 -1.78125 C 1.78125 -5.445312 1.800781 -9.253906 1.84375 -13.203125 C 1.882812 -17.160156 1.9375 -21.039062 2 -24.84375 C 2.0625 -28.644531 2.164062 -32.203125 2.3125 -35.515625 C 2.457031 -38.828125 2.613281 -41.664062 2.78125 -44.03125 C 2.914062 -44.957031 3.445312 -45.488281 4.375 -45.625 C 4.832031 -45.707031 5.359375 -45.769531 5.953125 -45.8125 C 6.546875 -45.851562 7.097656 -45.875 7.609375 -45.875 C 8.191406 -45.875 8.882812 -45.851562 9.6875 -45.8125 C 10.488281 -45.769531 11.101562 -45.707031 11.53125 -45.625 C 12 -45.582031 12.367188 -45.378906 12.640625 -45.015625 C 12.910156 -44.660156 13.003906 -44.25 12.921875 -43.78125 C 12.753906 -42.382812 12.53125 -40.585938 12.25 -38.390625 C 11.976562 -36.191406 11.738281 -33.921875 11.53125 -31.578125 C 11.320312 -29.234375 11.21875 -27.132812 11.21875 -25.28125 C 11.21875 -24.226562 11.488281 -23.363281 12.03125 -22.6875 C 12.582031 -22.007812 13.238281 -21.671875 14 -21.671875 C 15.945312 -21.671875 17.753906 -22.207031 19.421875 -23.28125 C 21.085938 -24.363281 22.46875 -25.757812 23.5625 -27.46875 C 24.664062 -29.175781 25.28125 -30.984375 25.40625 -32.890625 C 25.40625 -33.734375 25.890625 -34.257812 26.859375 -34.46875 C 27.453125 -34.550781 28.097656 -34.613281 28.796875 -34.65625 C 29.492188 -34.695312 30.097656 -34.71875 30.609375 -34.71875 C 31.066406 -34.71875 31.5625 -34.707031 32.09375 -34.6875 C 32.625 -34.664062 33.179688 -34.59375 33.765625 -34.46875 C 34.828125 -34.257812 35.335938 -33.734375 35.296875 -32.890625 C 35.253906 -30.390625 34.851562 -28.1875 34.09375 -26.28125 C 33.332031 -24.382812 32 -22.820312 30.09375 -21.59375 C 28.195312 -20.375 25.515625 -19.488281 22.046875 -18.9375 C 21.492188 -18.851562 21.21875 -18.664062 21.21875 -18.375 C 21.21875 -18.082031 21.492188 -17.890625 22.046875 -17.796875 C 25.847656 -17.335938 28.804688 -16.441406 30.921875 -15.109375 C 33.035156 -13.773438 34.566406 -11.988281 35.515625 -9.75 C 36.460938 -7.519531 37.0625 -4.773438 37.3125 -1.515625 C 37.351562 -0.671875 36.828125 -0.144531 35.734375 0.0625 C 35.097656 0.144531 34.492188 0.195312 33.921875 0.21875 C 33.359375 0.238281 32.882812 0.25 32.5 0.25 C 32.039062 0.25 31.375 0.238281 30.5 0.21875 C 29.632812 0.195312 28.84375 0.144531 28.125 0.0625 C 27.15625 -0.144531 26.628906 -0.648438 26.546875 -1.453125 C 26.460938 -3.484375 26.007812 -5.3125 25.1875 -6.9375 C 24.363281 -8.5625 23.328125 -9.953125 22.078125 -11.109375 C 20.835938 -12.273438 19.488281 -13.175781 18.03125 -13.8125 C 16.570312 -14.445312 15.144531 -14.765625 13.75 -14.765625 C 13.070312 -14.765625 12.488281 -14.488281 12 -13.9375 C 11.519531 -13.382812 11.257812 -12.6875 11.21875 -11.84375 C 11.175781 -10.15625 11.207031 -8.507812 11.3125 -6.90625 C 11.414062 -5.300781 11.59375 -3.59375 11.84375 -1.78125 C 11.925781 -1.269531 11.820312 -0.851562 11.53125 -0.53125 C 11.238281 -0.21875 10.859375 -0.0195312 10.390625 0.0625 C 9.921875 0.101562 9.359375 0.144531 8.703125 0.1875 C 8.054688 0.226562 7.5 0.25 7.03125 0.25 Z M 7.03125 0.25 "/></g></g></g><g fill="#ffffff" fill-opacity="1"><g transform="translate(165.955625, 82.392206)"><g><path d="M 11.84375 0.5 C 8.632812 0.5 6.046875 -0.257812 4.078125 -1.78125 C 2.117188 -3.300781 1.140625 -5.851562 1.140625 -9.4375 C 1.140625 -12.601562 2.269531 -15.101562 4.53125 -16.9375 C 6.789062 -18.78125 9.90625 -20.039062 13.875 -20.71875 C 17.507812 -21.226562 20.066406 -21.742188 21.546875 -22.265625 C 23.023438 -22.796875 23.765625 -23.632812 23.765625 -24.78125 C 23.765625 -25.445312 23.296875 -26.078125 22.359375 -26.671875 C 21.429688 -27.265625 19.847656 -27.5625 17.609375 -27.5625 C 15.710938 -27.5625 13.75 -27.265625 11.71875 -26.671875 C 9.695312 -26.078125 7.925781 -25.109375 6.40625 -23.765625 C 5.9375 -23.085938 5.394531 -22.894531 4.78125 -23.1875 C 4.164062 -23.488281 3.878906 -24.101562 3.921875 -25.03125 C 3.960938 -25.488281 4.023438 -26.128906 4.109375 -26.953125 C 4.203125 -27.773438 4.300781 -28.609375 4.40625 -29.453125 C 4.507812 -30.304688 4.582031 -30.941406 4.625 -31.359375 C 4.75 -32.378906 5.171875 -33.035156 5.890625 -33.328125 C 9.398438 -34.421875 13.203125 -34.96875 17.296875 -34.96875 C 22.148438 -34.96875 25.914062 -33.921875 28.59375 -31.828125 C 31.28125 -29.742188 32.835938 -26.398438 33.265625 -21.796875 C 33.390625 -20.191406 33.515625 -18.207031 33.640625 -15.84375 C 33.765625 -13.476562 33.890625 -11.066406 34.015625 -8.609375 C 34.148438 -6.160156 34.257812 -3.96875 34.34375 -2.03125 C 34.34375 -0.925781 33.75 -0.269531 32.5625 -0.0625 C 32.144531 0.0625 31.617188 0.144531 30.984375 0.1875 C 30.347656 0.226562 29.734375 0.25 29.140625 0.25 C 28.640625 0.25 28 0.226562 27.21875 0.1875 C 26.4375 0.144531 25.789062 0.0625 25.28125 -0.0625 C 24.726562 -0.144531 24.28125 -0.382812 23.9375 -0.78125 C 23.601562 -1.1875 23.476562 -1.664062 23.5625 -2.21875 C 23.65625 -2.632812 23.753906 -3.179688 23.859375 -3.859375 C 23.960938 -4.535156 24.035156 -5.210938 24.078125 -5.890625 C 24.160156 -6.484375 24.019531 -6.832031 23.65625 -6.9375 C 23.300781 -7.039062 23 -6.816406 22.75 -6.265625 C 21.769531 -4.203125 20.265625 -2.554688 18.234375 -1.328125 C 16.210938 -0.109375 14.082031 0.5 11.84375 0.5 Z M 16.15625 -7.34375 C 17.207031 -7.34375 18.3125 -7.617188 19.46875 -8.171875 C 20.632812 -8.722656 21.617188 -9.515625 22.421875 -10.546875 C 23.234375 -11.585938 23.640625 -12.84375 23.640625 -14.3125 C 23.640625 -15.332031 23.332031 -16.164062 22.71875 -16.8125 C 22.101562 -17.46875 21.054688 -17.796875 19.578125 -17.796875 C 18.097656 -17.796875 16.679688 -17.519531 15.328125 -16.96875 C 13.984375 -16.425781 12.882812 -15.679688 12.03125 -14.734375 C 11.1875 -13.785156 10.765625 -12.65625 10.765625 -11.34375 C 10.765625 -9.90625 11.1875 -8.878906 12.03125 -8.265625 C 12.882812 -7.648438 14.257812 -7.34375 16.15625 -7.34375 Z M 16.15625 -7.34375 "/></g></g></g><g clip-path="url(#3b4c2420a7)"><path fill="#165df9" d="M 67.773438 95.648438 C 67.773438 97.375 69.15625 98.757812 70.878906 98.757812 C 72.589844 98.757812 73.972656 97.375 73.972656 95.648438 L 73.972656 57.722656 C 73.972656 47.640625 69.871094 38.472656 63.21875 31.824219 C 56.585938 25.191406 47.417969 21.074219 37.320312 21.074219 C 27.222656 21.074219 18.054688 25.191406 11.417969 31.824219 C 4.769531 38.457031 0.667969 47.625 0.667969 57.722656 L 0.667969 64.824219 C 0.667969 66.535156 2.050781 67.933594 3.777344 67.933594 C 5.484375 67.933594 6.867188 66.535156 6.867188 64.824219 L 6.867188 57.722656 C 6.867188 49.335938 10.300781 41.738281 15.800781 36.207031 C 21.316406 30.707031 28.929688 27.289062 37.320312 27.289062 C 45.726562 27.289062 53.324219 30.707031 58.855469 36.207031 C 64.355469 41.738281 67.773438 49.335938 67.773438 57.722656 Z M 29.785156 73.570312 C 29.785156 71.863281 28.402344 70.480469 26.675781 70.480469 C 24.96875 70.480469 23.585938 71.863281 23.585938 73.570312 L 23.585938 81.496094 C 23.585938 83.21875 24.96875 84.601562 26.675781 84.601562 C 28.402344 84.601562 29.785156 83.21875 29.785156 81.496094 Z M 18.332031 78.34375 C 18.332031 76.632812 16.949219 75.25 15.242188 75.25 C 13.515625 75.25 12.132812 76.632812 12.132812 78.34375 L 12.132812 90.148438 C 12.132812 91.875 13.515625 93.257812 15.242188 93.257812 C 16.949219 93.257812 18.332031 91.875 18.332031 90.148438 Z M 6.867188 73.570312 C 6.867188 71.863281 5.484375 70.480469 3.777344 70.480469 C 2.050781 70.480469 0.667969 71.863281 0.667969 73.570312 L 0.667969 95.648438 C 0.667969 97.375 2.050781 98.757812 3.777344 98.757812 C 5.484375 98.757812 6.867188 97.375 6.867188 95.648438 Z M 44.761719 90.164062 C 44.761719 91.050781 45.121094 91.859375 45.710938 92.433594 C 46.285156 93.007812 47.078125 93.351562 47.960938 93.351562 C 48.847656 93.351562 49.65625 92.992188 50.214844 92.433594 C 50.804688 91.84375 51.164062 91.050781 51.164062 90.164062 C 51.164062 89.296875 50.804688 88.503906 50.214844 87.914062 C 49.640625 87.335938 48.847656 86.964844 47.960938 86.964844 C 47.078125 86.964844 46.269531 87.335938 45.710938 87.914062 C 45.121094 88.488281 44.761719 89.296875 44.761719 90.164062 Z M 23.476562 90.164062 C 23.476562 91.050781 23.832031 91.859375 24.425781 92.433594 C 25.015625 93.007812 25.808594 93.351562 26.675781 93.351562 C 27.5625 93.351562 28.371094 92.992188 28.945312 92.433594 C 29.519531 91.84375 29.863281 91.050781 29.863281 90.164062 C 29.863281 89.296875 29.503906 88.503906 28.945312 87.914062 C 28.355469 87.335938 27.5625 86.964844 26.675781 86.964844 C 25.808594 86.964844 25.015625 87.335938 24.425781 87.914062 C 23.832031 88.488281 23.476562 89.296875 23.476562 90.164062 Z M 44.871094 81.496094 C 44.871094 83.21875 46.253906 84.601562 47.960938 84.601562 C 49.6875 84.601562 51.070312 83.21875 51.070312 81.496094 L 51.070312 73.570312 C 51.070312 71.863281 49.6875 70.480469 47.960938 70.480469 C 46.253906 70.480469 44.871094 71.863281 44.871094 73.570312 Z M 44.871094 64.824219 C 44.871094 66.535156 46.253906 67.933594 47.960938 67.933594 C 49.6875 67.933594 51.070312 66.535156 51.070312 64.824219 L 51.070312 57.722656 C 51.070312 53.964844 49.53125 50.515625 47.03125 48.027344 C 44.542969 45.542969 41.09375 43.988281 37.320312 43.988281 C 33.542969 43.988281 30.109375 45.527344 27.625 48.027344 C 25.140625 50.53125 23.585938 53.964844 23.585938 57.722656 L 23.585938 64.824219 C 23.585938 66.535156 24.96875 67.933594 26.675781 67.933594 C 28.402344 67.933594 29.785156 66.535156 29.785156 64.824219 L 29.785156 57.722656 C 29.785156 55.65625 30.640625 53.777344 32.007812 52.410156 C 33.375 51.042969 35.253906 50.1875 37.320312 50.1875 C 39.402344 50.1875 41.28125 51.042969 42.648438 52.410156 C 44.015625 53.777344 44.871094 55.65625 44.871094 57.722656 Z M 56.304688 90.164062 C 56.304688 91.890625 57.703125 93.273438 59.414062 93.273438 C 61.121094 93.273438 62.519531 91.890625 62.519531 90.164062 L 62.519531 78.355469 C 62.519531 76.648438 61.121094 75.265625 59.414062 75.265625 C 57.703125 75.265625 56.304688 76.648438 56.304688 78.355469 Z M 56.304688 69.609375 C 56.304688 71.320312 57.703125 72.703125 59.414062 72.703125 C 61.121094 72.703125 62.519531 71.320312 62.519531 69.609375 L 62.519531 57.722656 C 62.519531 50.792969 59.675781 44.488281 55.125 39.917969 C 50.558594 35.351562 44.25 32.523438 37.304688 32.523438 C 30.359375 32.523438 24.066406 35.351562 19.5 39.917969 C 14.929688 44.488281 12.101562 50.792969 12.101562 57.722656 L 12.101562 69.609375 C 12.101562 71.320312 13.484375 72.703125 15.210938 72.703125 C 16.917969 72.703125 18.300781 71.320312 18.300781 69.609375 L 18.300781 57.722656 C 18.300781 52.503906 20.429688 47.765625 23.878906 44.316406 C 27.328125 40.867188 32.070312 38.738281 37.289062 38.738281 C 42.523438 38.738281 47.277344 40.867188 50.710938 44.316406 C 54.144531 47.765625 56.273438 52.503906 56.273438 57.722656 L 56.273438 69.609375 Z M 56.304688 69.609375 " fill-opacity="1" fill-rule="nonzero"/></g></svg>