<svg xmlns="http://www.w3.org/2000/svg" xmlns:xlink="http://www.w3.org/1999/xlink" width="323" zoomAndPan="magnify" viewBox="0 0 242.25 123.749996" height="165" preserveAspectRatio="xMidYMid meet" version="1.0"><defs><g/><clipPath id="4fda01b06d"><path d="M 0 38.691406 L 74 38.691406 L 74 116.449219 L 0 116.449219 Z M 0 38.691406 " clip-rule="nonzero"/></clipPath></defs><g fill="#152039" fill-opacity="1"><g transform="translate(89.5193, 82.872044)"><g><path d="M 18.984375 0.515625 C 15.585938 0.515625 12.539062 -0.128906 9.84375 -1.421875 C 7.144531 -2.722656 5.019531 -4.675781 3.46875 -7.28125 C 1.914062 -9.894531 1.140625 -13.15625 1.140625 -17.0625 C 1.140625 -20.882812 1.90625 -24.144531 3.4375 -26.84375 C 4.96875 -29.539062 7.078125 -31.597656 9.765625 -33.015625 C 12.460938 -34.441406 15.535156 -35.15625 18.984375 -35.15625 C 22.421875 -35.15625 25.460938 -34.441406 28.109375 -33.015625 C 30.765625 -31.597656 32.859375 -29.539062 34.390625 -26.84375 C 35.921875 -24.144531 36.6875 -20.882812 36.6875 -17.0625 C 36.6875 -13.15625 35.921875 -9.894531 34.390625 -7.28125 C 32.859375 -4.675781 30.753906 -2.722656 28.078125 -1.421875 C 25.410156 -0.128906 22.378906 0.515625 18.984375 0.515625 Z M 18.984375 -7 C 21.484375 -7 23.550781 -7.890625 25.1875 -9.671875 C 26.820312 -11.460938 27.640625 -14.035156 27.640625 -17.390625 C 27.640625 -20.566406 26.832031 -23.066406 25.21875 -24.890625 C 23.601562 -26.722656 21.523438 -27.640625 18.984375 -27.640625 C 16.390625 -27.640625 14.296875 -26.722656 12.703125 -24.890625 C 11.109375 -23.066406 10.3125 -20.566406 10.3125 -17.390625 C 10.3125 -14.035156 11.128906 -11.460938 12.765625 -9.671875 C 14.398438 -7.890625 16.472656 -7 18.984375 -7 Z M 18.984375 -7 "/></g></g></g><g fill="#152039" fill-opacity="1"><g transform="translate(127.342007, 82.872044)"><g><path d="M 7.0625 0.25 C 6.601562 0.25 5.976562 0.226562 5.1875 0.1875 C 4.40625 0.144531 3.757812 0.0820312 3.25 0 C 2.269531 -0.207031 1.78125 -0.800781 1.78125 -1.78125 C 1.78125 -5.476562 1.800781 -9.3125 1.84375 -13.28125 C 1.882812 -17.25 1.9375 -21.144531 2 -24.96875 C 2.070312 -28.789062 2.179688 -32.367188 2.328125 -35.703125 C 2.472656 -39.035156 2.628906 -41.890625 2.796875 -44.265625 C 2.929688 -45.191406 3.460938 -45.722656 4.390625 -45.859375 C 4.859375 -45.941406 5.390625 -46.003906 5.984375 -46.046875 C 6.578125 -46.085938 7.128906 -46.109375 7.640625 -46.109375 C 8.234375 -46.109375 8.929688 -46.085938 9.734375 -46.046875 C 10.546875 -46.003906 11.164062 -45.941406 11.59375 -45.859375 C 12.0625 -45.816406 12.429688 -45.613281 12.703125 -45.25 C 12.984375 -44.882812 13.082031 -44.472656 13 -44.015625 C 12.820312 -42.609375 12.59375 -40.800781 12.3125 -38.59375 C 12.039062 -36.382812 11.796875 -34.101562 11.578125 -31.75 C 11.367188 -29.394531 11.265625 -27.28125 11.265625 -25.40625 C 11.265625 -24.34375 11.539062 -23.472656 12.09375 -22.796875 C 12.644531 -22.117188 13.304688 -21.78125 14.078125 -21.78125 C 16.023438 -21.78125 17.835938 -22.320312 19.515625 -23.40625 C 21.191406 -24.488281 22.582031 -25.890625 23.6875 -27.609375 C 24.789062 -29.328125 25.40625 -31.140625 25.53125 -33.046875 C 25.53125 -33.898438 26.019531 -34.429688 27 -34.640625 C 27.59375 -34.722656 28.238281 -34.785156 28.9375 -34.828125 C 29.644531 -34.878906 30.253906 -34.90625 30.765625 -34.90625 C 31.234375 -34.90625 31.726562 -34.894531 32.25 -34.875 C 32.78125 -34.851562 33.347656 -34.773438 33.953125 -34.640625 C 35.003906 -34.429688 35.507812 -33.898438 35.46875 -33.046875 C 35.425781 -30.546875 35.023438 -28.335938 34.265625 -26.421875 C 33.503906 -24.515625 32.164062 -22.945312 30.25 -21.71875 C 28.34375 -20.488281 25.644531 -19.597656 22.15625 -19.046875 C 21.601562 -18.960938 21.328125 -18.769531 21.328125 -18.46875 C 21.328125 -18.175781 21.601562 -17.984375 22.15625 -17.890625 C 25.976562 -17.429688 28.953125 -16.53125 31.078125 -15.1875 C 33.203125 -13.851562 34.738281 -12.0625 35.6875 -9.8125 C 36.644531 -7.5625 37.253906 -4.800781 37.515625 -1.53125 C 37.554688 -0.675781 37.023438 -0.144531 35.921875 0.0625 C 35.285156 0.144531 34.679688 0.195312 34.109375 0.21875 C 33.535156 0.238281 33.054688 0.25 32.671875 0.25 C 32.203125 0.25 31.53125 0.238281 30.65625 0.21875 C 29.789062 0.195312 29 0.144531 28.28125 0.0625 C 27.300781 -0.144531 26.769531 -0.65625 26.6875 -1.46875 C 26.601562 -3.5 26.144531 -5.332031 25.3125 -6.96875 C 24.488281 -8.601562 23.445312 -10.003906 22.1875 -11.171875 C 20.9375 -12.335938 19.578125 -13.238281 18.109375 -13.875 C 16.648438 -14.519531 15.21875 -14.84375 13.8125 -14.84375 C 13.132812 -14.84375 12.550781 -14.566406 12.0625 -14.015625 C 11.582031 -13.460938 11.316406 -12.757812 11.265625 -11.90625 C 11.222656 -10.207031 11.253906 -8.550781 11.359375 -6.9375 C 11.472656 -5.320312 11.65625 -3.601562 11.90625 -1.78125 C 11.988281 -1.269531 11.878906 -0.851562 11.578125 -0.53125 C 11.285156 -0.21875 10.90625 -0.0195312 10.4375 0.0625 C 9.976562 0.101562 9.414062 0.144531 8.75 0.1875 C 8.09375 0.226562 7.53125 0.25 7.0625 0.25 Z M 7.0625 0.25 "/></g></g></g><g fill="#152039" fill-opacity="1"><g transform="translate(166.119822, 82.872044)"><g><path d="M 11.90625 0.515625 C 8.675781 0.515625 6.070312 -0.25 4.09375 -1.78125 C 2.125 -3.3125 1.140625 -5.878906 1.140625 -9.484375 C 1.140625 -12.671875 2.273438 -15.1875 4.546875 -17.03125 C 6.828125 -18.882812 9.960938 -20.148438 13.953125 -20.828125 C 17.597656 -21.335938 20.164062 -21.859375 21.65625 -22.390625 C 23.144531 -22.921875 23.890625 -23.757812 23.890625 -24.90625 C 23.890625 -25.582031 23.421875 -26.21875 22.484375 -26.8125 C 21.546875 -27.40625 19.953125 -27.703125 17.703125 -27.703125 C 15.796875 -27.703125 13.820312 -27.40625 11.78125 -26.8125 C 9.738281 -26.21875 7.957031 -25.242188 6.4375 -23.890625 C 5.96875 -23.203125 5.425781 -23.003906 4.8125 -23.296875 C 4.195312 -23.597656 3.910156 -24.21875 3.953125 -25.15625 C 3.992188 -25.625 4.054688 -26.269531 4.140625 -27.09375 C 4.222656 -27.925781 4.316406 -28.765625 4.421875 -29.609375 C 4.523438 -30.460938 4.601562 -31.101562 4.65625 -31.53125 C 4.78125 -32.539062 5.203125 -33.195312 5.921875 -33.5 C 9.441406 -34.601562 13.265625 -35.15625 17.390625 -35.15625 C 22.265625 -35.15625 26.050781 -34.101562 28.75 -32 C 31.445312 -29.894531 33.007812 -26.53125 33.4375 -21.90625 C 33.5625 -20.289062 33.6875 -18.296875 33.8125 -15.921875 C 33.945312 -13.546875 34.078125 -11.125 34.203125 -8.65625 C 34.328125 -6.195312 34.429688 -3.988281 34.515625 -2.03125 C 34.515625 -0.925781 33.921875 -0.269531 32.734375 -0.0625 C 32.304688 0.0625 31.773438 0.144531 31.140625 0.1875 C 30.503906 0.226562 29.890625 0.25 29.296875 0.25 C 28.785156 0.25 28.132812 0.226562 27.34375 0.1875 C 26.5625 0.144531 25.914062 0.0625 25.40625 -0.0625 C 24.851562 -0.144531 24.40625 -0.390625 24.0625 -0.796875 C 23.726562 -1.203125 23.601562 -1.679688 23.6875 -2.234375 C 23.769531 -2.648438 23.863281 -3.195312 23.96875 -3.875 C 24.082031 -4.5625 24.160156 -5.242188 24.203125 -5.921875 C 24.285156 -6.515625 24.144531 -6.863281 23.78125 -6.96875 C 23.425781 -7.082031 23.117188 -6.863281 22.859375 -6.3125 C 21.890625 -4.226562 20.382812 -2.566406 18.34375 -1.328125 C 16.300781 -0.0976562 14.15625 0.515625 11.90625 0.515625 Z M 16.234375 -7.390625 C 17.296875 -7.390625 18.410156 -7.664062 19.578125 -8.21875 C 20.742188 -8.769531 21.726562 -9.566406 22.53125 -10.609375 C 23.34375 -11.648438 23.75 -12.910156 23.75 -14.390625 C 23.75 -15.410156 23.441406 -16.25 22.828125 -16.90625 C 22.210938 -17.5625 21.160156 -17.890625 19.671875 -17.890625 C 18.191406 -17.890625 16.769531 -17.613281 15.40625 -17.0625 C 14.050781 -16.507812 12.945312 -15.753906 12.09375 -14.796875 C 11.25 -13.847656 10.828125 -12.71875 10.828125 -11.40625 C 10.828125 -9.957031 11.25 -8.925781 12.09375 -8.3125 C 12.945312 -7.695312 14.328125 -7.390625 16.234375 -7.390625 Z M 16.234375 -7.390625 "/></g></g></g><g fill="#152039" fill-opacity="1"><g transform="translate(89.5193, 111.486843)"><g><path d="M 11.25 -16.109375 L 11.25 0 L 9.890625 0 L 9.890625 -2.140625 L 9.125 -0.875 C 8.707031 -0.46875 8.222656 -0.171875 7.671875 0.015625 C 7.117188 0.210938 6.503906 0.3125 5.828125 0.3125 C 4.742188 0.3125 3.816406 0.0507812 3.046875 -0.46875 C 2.273438 -0.988281 1.679688 -1.695312 1.265625 -2.59375 C 0.859375 -3.5 0.65625 -4.519531 0.65625 -5.65625 C 0.65625 -7.0625 0.910156 -8.226562 1.421875 -9.15625 C 1.929688 -10.082031 2.609375 -10.769531 3.453125 -11.21875 C 4.296875 -11.675781 5.207031 -11.90625 6.1875 -11.90625 C 6.75 -11.90625 7.289062 -11.816406 7.8125 -11.640625 C 8.34375 -11.460938 8.789062 -11.195312 9.15625 -10.84375 L 9.890625 -9.609375 L 9.890625 -16.109375 Z M 6.03125 -0.765625 C 6.71875 -0.765625 7.351562 -0.914062 7.9375 -1.21875 C 8.519531 -1.53125 8.988281 -2.03125 9.34375 -2.71875 C 9.707031 -3.414062 9.890625 -4.351562 9.890625 -5.53125 L 9.890625 -6.40625 C 9.890625 -7.5 9.695312 -8.363281 9.3125 -9 C 8.9375 -9.644531 8.460938 -10.109375 7.890625 -10.390625 C 7.316406 -10.671875 6.75 -10.8125 6.1875 -10.8125 C 5.40625 -10.8125 4.710938 -10.613281 4.109375 -10.21875 C 3.503906 -9.820312 3.023438 -9.253906 2.671875 -8.515625 C 2.316406 -7.773438 2.140625 -6.878906 2.140625 -5.828125 C 2.140625 -4.910156 2.285156 -4.066406 2.578125 -3.296875 C 2.878906 -2.523438 3.316406 -1.910156 3.890625 -1.453125 C 4.460938 -0.992188 5.175781 -0.765625 6.03125 -0.765625 Z M 6.03125 -0.765625 "/></g></g></g><g fill="#152039" fill-opacity="1"><g transform="translate(103.071044, 111.486843)"><g><path d="M 10.953125 -6.109375 C 10.953125 -6.035156 10.953125 -5.941406 10.953125 -5.828125 C 10.953125 -5.710938 10.941406 -5.566406 10.921875 -5.390625 L 2.125 -5.390625 C 2.1875 -4.253906 2.394531 -3.347656 2.75 -2.671875 C 3.101562 -2.003906 3.554688 -1.519531 4.109375 -1.21875 C 4.671875 -0.914062 5.265625 -0.765625 5.890625 -0.765625 C 6.710938 -0.765625 7.445312 -1.007812 8.09375 -1.5 C 8.75 -1.988281 9.175781 -2.707031 9.375 -3.65625 L 10.8125 -3.65625 C 10.632812 -2.769531 10.296875 -2.03125 9.796875 -1.4375 C 9.296875 -0.84375 8.695312 -0.398438 8 -0.109375 C 7.3125 0.171875 6.582031 0.3125 5.8125 0.3125 C 4.84375 0.3125 3.96875 0.0859375 3.1875 -0.359375 C 2.414062 -0.816406 1.800781 -1.492188 1.34375 -2.390625 C 0.882812 -3.296875 0.65625 -4.425781 0.65625 -5.78125 C 0.65625 -7.03125 0.890625 -8.109375 1.359375 -9.015625 C 1.835938 -9.929688 2.484375 -10.640625 3.296875 -11.140625 C 4.109375 -11.648438 5.019531 -11.90625 6.03125 -11.90625 C 7.113281 -11.90625 8.019531 -11.644531 8.75 -11.125 C 9.476562 -10.601562 10.023438 -9.90625 10.390625 -9.03125 C 10.765625 -8.15625 10.953125 -7.179688 10.953125 -6.109375 Z M 5.984375 -10.8125 C 5.359375 -10.8125 4.765625 -10.648438 4.203125 -10.328125 C 3.640625 -10.003906 3.171875 -9.519531 2.796875 -8.875 C 2.421875 -8.226562 2.195312 -7.425781 2.125 -6.46875 L 9.578125 -6.46875 C 9.503906 -7.957031 9.128906 -9.050781 8.453125 -9.75 C 7.785156 -10.457031 6.960938 -10.8125 5.984375 -10.8125 Z M 5.984375 -10.8125 "/></g></g></g><g fill="#152039" fill-opacity="1"><g transform="translate(115.548298, 111.486843)"><g><path d="M 4.890625 -11.90625 C 6.148438 -11.90625 7.117188 -11.566406 7.796875 -10.890625 C 8.484375 -10.222656 8.894531 -9.378906 9.03125 -8.359375 L 7.609375 -8.359375 C 7.273438 -9.992188 6.332031 -10.8125 4.78125 -10.8125 C 4.082031 -10.8125 3.515625 -10.628906 3.078125 -10.265625 C 2.648438 -9.898438 2.4375 -9.394531 2.4375 -8.75 C 2.4375 -8.070312 2.6875 -7.570312 3.1875 -7.25 C 3.695312 -6.9375 4.367188 -6.675781 5.203125 -6.46875 C 6.546875 -6.144531 7.535156 -5.710938 8.171875 -5.171875 C 8.816406 -4.628906 9.140625 -3.867188 9.140625 -2.890625 C 9.140625 -1.867188 8.75 -1.078125 7.96875 -0.515625 C 7.1875 0.0351562 6.195312 0.3125 5 0.3125 C 3.84375 0.3125 2.851562 0.0195312 2.03125 -0.5625 C 1.207031 -1.15625 0.710938 -2.109375 0.546875 -3.421875 L 1.953125 -3.421875 C 2.109375 -2.441406 2.472656 -1.753906 3.046875 -1.359375 C 3.628906 -0.960938 4.304688 -0.765625 5.078125 -0.765625 C 5.816406 -0.765625 6.445312 -0.929688 6.96875 -1.265625 C 7.5 -1.609375 7.765625 -2.113281 7.765625 -2.78125 C 7.765625 -3.425781 7.53125 -3.929688 7.0625 -4.296875 C 6.59375 -4.660156 5.796875 -4.984375 4.671875 -5.265625 C 4.015625 -5.441406 3.40625 -5.660156 2.84375 -5.921875 C 2.289062 -6.179688 1.847656 -6.523438 1.515625 -6.953125 C 1.191406 -7.390625 1.03125 -7.9375 1.03125 -8.59375 C 1.03125 -9.582031 1.382812 -10.378906 2.09375 -10.984375 C 2.8125 -11.597656 3.742188 -11.90625 4.890625 -11.90625 Z M 4.890625 -11.90625 "/></g></g></g><g fill="#152039" fill-opacity="1"><g transform="translate(126.073946, 111.486843)"><g><path d="M 2.28125 -15.015625 C 2.539062 -15.015625 2.757812 -14.925781 2.9375 -14.75 C 3.113281 -14.570312 3.203125 -14.351562 3.203125 -14.09375 C 3.203125 -13.84375 3.113281 -13.625 2.9375 -13.4375 C 2.757812 -13.257812 2.539062 -13.171875 2.28125 -13.171875 C 2.03125 -13.171875 1.8125 -13.257812 1.625 -13.4375 C 1.445312 -13.625 1.359375 -13.84375 1.359375 -14.09375 C 1.359375 -14.351562 1.445312 -14.570312 1.625 -14.75 C 1.8125 -14.925781 2.03125 -15.015625 2.28125 -15.015625 Z M 2.953125 0 L 1.59375 0 L 1.59375 -11.59375 L 2.953125 -11.59375 Z M 2.953125 0 "/></g></g></g><g fill="#152039" fill-opacity="1"><g transform="translate(131.336829, 111.486843)"><g><path d="M 11.25 -11.625 L 11.25 -2.9375 C 11.25 -2.363281 11.25 -1.847656 11.25 -1.390625 C 11.25 -0.941406 11.238281 -0.550781 11.21875 -0.21875 C 11.164062 1.332031 10.679688 2.535156 9.765625 3.390625 C 8.847656 4.253906 7.59375 4.6875 6 4.6875 C 4.570312 4.6875 3.429688 4.382812 2.578125 3.78125 C 1.734375 3.175781 1.238281 2.242188 1.09375 0.984375 L 1.078125 0.71875 L 2.4375 0.71875 L 2.484375 0.984375 C 2.578125 1.835938 2.941406 2.488281 3.578125 2.9375 C 4.210938 3.382812 5.019531 3.609375 6 3.609375 C 7.226562 3.609375 8.164062 3.269531 8.8125 2.59375 C 9.46875 1.914062 9.816406 1 9.859375 -0.15625 C 9.878906 -0.476562 9.890625 -0.765625 9.890625 -1.015625 C 9.890625 -1.273438 9.890625 -1.554688 9.890625 -1.859375 L 9.890625 -2.140625 L 9.125 -0.875 C 8.707031 -0.46875 8.222656 -0.171875 7.671875 0.015625 C 7.117188 0.210938 6.503906 0.3125 5.828125 0.3125 C 4.742188 0.3125 3.816406 0.0507812 3.046875 -0.46875 C 2.273438 -0.988281 1.679688 -1.695312 1.265625 -2.59375 C 0.859375 -3.5 0.65625 -4.519531 0.65625 -5.65625 C 0.65625 -7.0625 0.910156 -8.226562 1.421875 -9.15625 C 1.929688 -10.082031 2.609375 -10.769531 3.453125 -11.21875 C 4.296875 -11.675781 5.207031 -11.90625 6.1875 -11.90625 C 6.75 -11.90625 7.289062 -11.816406 7.8125 -11.640625 C 8.34375 -11.460938 8.789062 -11.195312 9.15625 -10.84375 L 9.890625 -9.609375 L 9.890625 -11.625 Z M 6.03125 -0.765625 C 6.71875 -0.765625 7.351562 -0.914062 7.9375 -1.21875 C 8.519531 -1.53125 8.988281 -2.03125 9.34375 -2.71875 C 9.707031 -3.414062 9.890625 -4.351562 9.890625 -5.53125 L 9.890625 -6.40625 C 9.890625 -7.5 9.695312 -8.363281 9.3125 -9 C 8.9375 -9.644531 8.460938 -10.109375 7.890625 -10.390625 C 7.316406 -10.671875 6.75 -10.8125 6.1875 -10.8125 C 5.40625 -10.8125 4.710938 -10.613281 4.109375 -10.21875 C 3.503906 -9.820312 3.023438 -9.253906 2.671875 -8.515625 C 2.316406 -7.773438 2.140625 -6.878906 2.140625 -5.828125 C 2.140625 -4.910156 2.285156 -4.066406 2.578125 -3.296875 C 2.878906 -2.523438 3.316406 -1.910156 3.890625 -1.453125 C 4.460938 -0.992188 5.175781 -0.765625 6.03125 -0.765625 Z M 6.03125 -0.765625 "/></g></g></g><g fill="#152039" fill-opacity="1"><g transform="translate(144.888571, 111.486843)"><g><path d="M 10.921875 -8.4375 C 10.941406 -8.144531 10.953125 -7.863281 10.953125 -7.59375 C 10.953125 -7.320312 10.953125 -6.953125 10.953125 -6.484375 L 10.953125 0 L 9.609375 0 L 9.609375 -6.328125 C 9.609375 -6.671875 9.609375 -6.976562 9.609375 -7.25 C 9.609375 -7.519531 9.59375 -7.800781 9.5625 -8.09375 C 9.488281 -8.875 9.21875 -9.515625 8.75 -10.015625 C 8.28125 -10.523438 7.554688 -10.78125 6.578125 -10.78125 C 5.929688 -10.78125 5.332031 -10.613281 4.78125 -10.28125 C 4.238281 -9.945312 3.796875 -9.410156 3.453125 -8.671875 C 3.117188 -7.941406 2.953125 -6.972656 2.953125 -5.765625 L 2.953125 0 L 1.59375 0 L 1.59375 -11.59375 L 2.953125 -11.59375 L 2.953125 -9.359375 L 3.578125 -10.609375 C 4.046875 -11.078125 4.546875 -11.410156 5.078125 -11.609375 C 5.609375 -11.804688 6.195312 -11.90625 6.84375 -11.90625 C 8.070312 -11.90625 9.03125 -11.59375 9.71875 -10.96875 C 10.414062 -10.351562 10.816406 -9.507812 10.921875 -8.4375 Z M 10.921875 -8.4375 "/></g></g></g><g fill="#152039" fill-opacity="1"><g transform="translate(158.023676, 111.486843)"><g/></g></g><g fill="#152039" fill-opacity="1"><g transform="translate(163.154993, 111.486843)"><g><path d="M 4.890625 -11.90625 C 6.148438 -11.90625 7.117188 -11.566406 7.796875 -10.890625 C 8.484375 -10.222656 8.894531 -9.378906 9.03125 -8.359375 L 7.609375 -8.359375 C 7.273438 -9.992188 6.332031 -10.8125 4.78125 -10.8125 C 4.082031 -10.8125 3.515625 -10.628906 3.078125 -10.265625 C 2.648438 -9.898438 2.4375 -9.394531 2.4375 -8.75 C 2.4375 -8.070312 2.6875 -7.570312 3.1875 -7.25 C 3.695312 -6.9375 4.367188 -6.675781 5.203125 -6.46875 C 6.546875 -6.144531 7.535156 -5.710938 8.171875 -5.171875 C 8.816406 -4.628906 9.140625 -3.867188 9.140625 -2.890625 C 9.140625 -1.867188 8.75 -1.078125 7.96875 -0.515625 C 7.1875 0.0351562 6.195312 0.3125 5 0.3125 C 3.84375 0.3125 2.851562 0.0195312 2.03125 -0.5625 C 1.207031 -1.15625 0.710938 -2.109375 0.546875 -3.421875 L 1.953125 -3.421875 C 2.109375 -2.441406 2.472656 -1.753906 3.046875 -1.359375 C 3.628906 -0.960938 4.304688 -0.765625 5.078125 -0.765625 C 5.816406 -0.765625 6.445312 -0.929688 6.96875 -1.265625 C 7.5 -1.609375 7.765625 -2.113281 7.765625 -2.78125 C 7.765625 -3.425781 7.53125 -3.929688 7.0625 -4.296875 C 6.59375 -4.660156 5.796875 -4.984375 4.671875 -5.265625 C 4.015625 -5.441406 3.40625 -5.660156 2.84375 -5.921875 C 2.289062 -6.179688 1.847656 -6.523438 1.515625 -6.953125 C 1.191406 -7.390625 1.03125 -7.9375 1.03125 -8.59375 C 1.03125 -9.582031 1.382812 -10.378906 2.09375 -10.984375 C 2.8125 -11.597656 3.742188 -11.90625 4.890625 -11.90625 Z M 4.890625 -11.90625 "/></g></g></g><g fill="#152039" fill-opacity="1"><g transform="translate(173.680639, 111.486843)"><g><path d="M 10.953125 -6.109375 C 10.953125 -6.035156 10.953125 -5.941406 10.953125 -5.828125 C 10.953125 -5.710938 10.941406 -5.566406 10.921875 -5.390625 L 2.125 -5.390625 C 2.1875 -4.253906 2.394531 -3.347656 2.75 -2.671875 C 3.101562 -2.003906 3.554688 -1.519531 4.109375 -1.21875 C 4.671875 -0.914062 5.265625 -0.765625 5.890625 -0.765625 C 6.710938 -0.765625 7.445312 -1.007812 8.09375 -1.5 C 8.75 -1.988281 9.175781 -2.707031 9.375 -3.65625 L 10.8125 -3.65625 C 10.632812 -2.769531 10.296875 -2.03125 9.796875 -1.4375 C 9.296875 -0.84375 8.695312 -0.398438 8 -0.109375 C 7.3125 0.171875 6.582031 0.3125 5.8125 0.3125 C 4.84375 0.3125 3.96875 0.0859375 3.1875 -0.359375 C 2.414062 -0.816406 1.800781 -1.492188 1.34375 -2.390625 C 0.882812 -3.296875 0.65625 -4.425781 0.65625 -5.78125 C 0.65625 -7.03125 0.890625 -8.109375 1.359375 -9.015625 C 1.835938 -9.929688 2.484375 -10.640625 3.296875 -11.140625 C 4.109375 -11.648438 5.019531 -11.90625 6.03125 -11.90625 C 7.113281 -11.90625 8.019531 -11.644531 8.75 -11.125 C 9.476562 -10.601562 10.023438 -9.90625 10.390625 -9.03125 C 10.765625 -8.15625 10.953125 -7.179688 10.953125 -6.109375 Z M 5.984375 -10.8125 C 5.359375 -10.8125 4.765625 -10.648438 4.203125 -10.328125 C 3.640625 -10.003906 3.171875 -9.519531 2.796875 -8.875 C 2.421875 -8.226562 2.195312 -7.425781 2.125 -6.46875 L 9.578125 -6.46875 C 9.503906 -7.957031 9.128906 -9.050781 8.453125 -9.75 C 7.785156 -10.457031 6.960938 -10.8125 5.984375 -10.8125 Z M 5.984375 -10.8125 "/></g></g></g><g fill="#152039" fill-opacity="1"><g transform="translate(186.157891, 111.486843)"><g><path d="M 11.25 -11.625 L 11.25 -2.9375 C 11.25 -2.363281 11.25 -1.847656 11.25 -1.390625 C 11.25 -0.941406 11.238281 -0.550781 11.21875 -0.21875 C 11.164062 1.332031 10.679688 2.535156 9.765625 3.390625 C 8.847656 4.253906 7.59375 4.6875 6 4.6875 C 4.570312 4.6875 3.429688 4.382812 2.578125 3.78125 C 1.734375 3.175781 1.238281 2.242188 1.09375 0.984375 L 1.078125 0.71875 L 2.4375 0.71875 L 2.484375 0.984375 C 2.578125 1.835938 2.941406 2.488281 3.578125 2.9375 C 4.210938 3.382812 5.019531 3.609375 6 3.609375 C 7.226562 3.609375 8.164062 3.269531 8.8125 2.59375 C 9.46875 1.914062 9.816406 1 9.859375 -0.15625 C 9.878906 -0.476562 9.890625 -0.765625 9.890625 -1.015625 C 9.890625 -1.273438 9.890625 -1.554688 9.890625 -1.859375 L 9.890625 -2.140625 L 9.125 -0.875 C 8.707031 -0.46875 8.222656 -0.171875 7.671875 0.015625 C 7.117188 0.210938 6.503906 0.3125 5.828125 0.3125 C 4.742188 0.3125 3.816406 0.0507812 3.046875 -0.46875 C 2.273438 -0.988281 1.679688 -1.695312 1.265625 -2.59375 C 0.859375 -3.5 0.65625 -4.519531 0.65625 -5.65625 C 0.65625 -7.0625 0.910156 -8.226562 1.421875 -9.15625 C 1.929688 -10.082031 2.609375 -10.769531 3.453125 -11.21875 C 4.296875 -11.675781 5.207031 -11.90625 6.1875 -11.90625 C 6.75 -11.90625 7.289062 -11.816406 7.8125 -11.640625 C 8.34375 -11.460938 8.789062 -11.195312 9.15625 -10.84375 L 9.890625 -9.609375 L 9.890625 -11.625 Z M 6.03125 -0.765625 C 6.71875 -0.765625 7.351562 -0.914062 7.9375 -1.21875 C 8.519531 -1.53125 8.988281 -2.03125 9.34375 -2.71875 C 9.707031 -3.414062 9.890625 -4.351562 9.890625 -5.53125 L 9.890625 -6.40625 C 9.890625 -7.5 9.695312 -8.363281 9.3125 -9 C 8.9375 -9.644531 8.460938 -10.109375 7.890625 -10.390625 C 7.316406 -10.671875 6.75 -10.8125 6.1875 -10.8125 C 5.40625 -10.8125 4.710938 -10.613281 4.109375 -10.21875 C 3.503906 -9.820312 3.023438 -9.253906 2.671875 -8.515625 C 2.316406 -7.773438 2.140625 -6.878906 2.140625 -5.828125 C 2.140625 -4.910156 2.285156 -4.066406 2.578125 -3.296875 C 2.878906 -2.523438 3.316406 -1.910156 3.890625 -1.453125 C 4.460938 -0.992188 5.175781 -0.765625 6.03125 -0.765625 Z M 6.03125 -0.765625 "/></g></g></g><g fill="#152039" fill-opacity="1"><g transform="translate(199.709639, 111.486843)"><g><path d="M 10.78125 -11.59375 L 10.78125 0 L 9.421875 0 L 9.421875 -2.234375 L 8.796875 -0.9375 C 8.335938 -0.488281 7.84375 -0.171875 7.3125 0.015625 C 6.78125 0.210938 6.191406 0.3125 5.546875 0.3125 C 4.359375 0.3125 3.421875 0.015625 2.734375 -0.578125 C 2.046875 -1.179688 1.640625 -1.945312 1.515625 -2.875 C 1.484375 -3.164062 1.457031 -3.445312 1.4375 -3.71875 C 1.425781 -3.988281 1.421875 -4.359375 1.421875 -4.828125 L 1.421875 -11.59375 L 2.78125 -11.59375 L 2.78125 -5.125 C 2.78125 -4.851562 2.785156 -4.570312 2.796875 -4.28125 C 2.816406 -3.988281 2.84375 -3.691406 2.875 -3.390625 C 2.957031 -2.640625 3.25 -2.019531 3.75 -1.53125 C 4.257812 -1.039062 4.960938 -0.796875 5.859375 -0.796875 C 6.492188 -0.796875 7.082031 -0.960938 7.625 -1.296875 C 8.164062 -1.628906 8.597656 -2.164062 8.921875 -2.90625 C 9.253906 -3.644531 9.421875 -4.617188 9.421875 -5.828125 L 9.421875 -11.59375 Z M 10.78125 -11.59375 "/></g></g></g><g fill="#152039" fill-opacity="1"><g transform="translate(212.800895, 111.486843)"><g><path d="M 5.78125 -11.859375 C 5.90625 -11.859375 6.023438 -11.847656 6.140625 -11.828125 C 6.253906 -11.816406 6.363281 -11.796875 6.46875 -11.765625 L 6.46875 -10.703125 C 5.457031 -10.773438 4.617188 -10.476562 3.953125 -9.8125 C 3.285156 -9.15625 2.953125 -8.054688 2.953125 -6.515625 L 2.953125 0 L 1.59375 0 L 1.59375 -11.59375 L 2.953125 -11.59375 L 2.953125 -9.484375 L 3.796875 -10.984375 C 4.347656 -11.566406 5.007812 -11.859375 5.78125 -11.859375 Z M 5.78125 -11.859375 "/></g></g></g><g fill="#152039" fill-opacity="1"><g transform="translate(220.103101, 111.486843)"><g><path d="M 6.296875 -11.90625 C 7.523438 -11.90625 8.554688 -11.632812 9.390625 -11.09375 C 10.234375 -10.550781 10.863281 -9.816406 11.28125 -8.890625 C 11.707031 -7.960938 11.921875 -6.925781 11.921875 -5.78125 C 11.921875 -4.65625 11.707031 -3.628906 11.28125 -2.703125 C 10.863281 -1.773438 10.234375 -1.039062 9.390625 -0.5 C 8.554688 0.0390625 7.523438 0.3125 6.296875 0.3125 C 5.066406 0.3125 4.03125 0.0390625 3.1875 -0.5 C 2.34375 -1.039062 1.707031 -1.773438 1.28125 -2.703125 C 0.863281 -3.628906 0.65625 -4.65625 0.65625 -5.78125 C 0.65625 -6.925781 0.863281 -7.960938 1.28125 -8.890625 C 1.707031 -9.816406 2.34375 -10.550781 3.1875 -11.09375 C 4.03125 -11.632812 5.066406 -11.90625 6.296875 -11.90625 Z M 6.296875 -0.765625 C 7.097656 -0.765625 7.804688 -0.960938 8.421875 -1.359375 C 9.046875 -1.765625 9.535156 -2.335938 9.890625 -3.078125 C 10.253906 -3.828125 10.4375 -4.726562 10.4375 -5.78125 C 10.4375 -6.832031 10.253906 -7.734375 9.890625 -8.484375 C 9.535156 -9.242188 9.046875 -9.820312 8.421875 -10.21875 C 7.804688 -10.613281 7.097656 -10.8125 6.296875 -10.8125 C 5.484375 -10.8125 4.765625 -10.613281 4.140625 -10.21875 C 3.523438 -9.820312 3.035156 -9.242188 2.671875 -8.484375 C 2.316406 -7.734375 2.140625 -6.832031 2.140625 -5.78125 C 2.140625 -4.726562 2.316406 -3.828125 2.671875 -3.078125 C 3.035156 -2.335938 3.523438 -1.765625 4.140625 -1.359375 C 4.765625 -0.960938 5.484375 -0.765625 6.296875 -0.765625 Z M 6.296875 -0.765625 "/></g></g></g><g clip-path="url(#4fda01b06d)"><path fill="#0048e8" d="M 67.445312 113.644531 C 67.445312 115.375 68.832031 116.765625 70.566406 116.765625 C 72.285156 116.765625 73.675781 115.375 73.675781 113.644531 L 73.675781 75.527344 C 73.675781 65.394531 69.550781 56.179688 62.867188 49.496094 C 56.199219 42.828125 46.988281 38.691406 36.839844 38.691406 C 26.6875 38.691406 17.476562 42.828125 10.808594 49.496094 C 4.125 56.164062 0.00390625 65.378906 0.00390625 75.527344 L 0.00390625 82.664062 C 0.00390625 84.378906 1.394531 85.785156 3.125 85.785156 C 4.84375 85.785156 6.234375 84.378906 6.234375 82.664062 L 6.234375 75.527344 C 6.234375 67.09375 9.683594 59.460938 15.210938 53.898438 C 20.753906 48.371094 28.40625 44.9375 36.839844 44.9375 C 45.285156 44.9375 52.921875 48.371094 58.480469 53.898438 C 64.007812 59.460938 67.445312 67.09375 67.445312 75.527344 Z M 29.265625 91.453125 C 29.265625 89.738281 27.875 88.347656 26.140625 88.347656 C 24.425781 88.347656 23.035156 89.738281 23.035156 91.453125 L 23.035156 99.417969 C 23.035156 101.152344 24.425781 102.539062 26.140625 102.539062 C 27.875 102.539062 29.265625 101.152344 29.265625 99.417969 Z M 17.757812 96.246094 C 17.757812 94.53125 16.367188 93.140625 14.648438 93.140625 C 12.917969 93.140625 11.527344 94.53125 11.527344 96.246094 L 11.527344 108.113281 C 11.527344 109.847656 12.917969 111.238281 14.648438 111.238281 C 16.367188 111.238281 17.757812 109.847656 17.757812 108.113281 Z M 6.234375 91.453125 C 6.234375 89.738281 4.84375 88.347656 3.125 88.347656 C 1.394531 88.347656 0.00390625 89.738281 0.00390625 91.453125 L 0.00390625 113.644531 C 0.00390625 115.375 1.394531 116.765625 3.125 116.765625 C 4.84375 116.765625 6.234375 115.375 6.234375 113.644531 Z M 44.316406 108.128906 C 44.316406 109.019531 44.675781 109.832031 45.269531 110.410156 C 45.847656 110.988281 46.644531 111.332031 47.535156 111.332031 C 48.425781 111.332031 49.238281 110.972656 49.800781 110.410156 C 50.390625 109.816406 50.75 109.019531 50.75 108.128906 C 50.75 107.257812 50.390625 106.460938 49.800781 105.867188 C 49.222656 105.289062 48.425781 104.914062 47.535156 104.914062 C 46.644531 104.914062 45.832031 105.289062 45.269531 105.867188 C 44.675781 106.445312 44.316406 107.257812 44.316406 108.128906 Z M 22.925781 108.128906 C 22.925781 109.019531 23.285156 109.832031 23.878906 110.410156 C 24.472656 110.988281 25.269531 111.332031 26.140625 111.332031 C 27.03125 111.332031 27.84375 110.972656 28.421875 110.410156 C 29 109.816406 29.34375 109.019531 29.34375 108.128906 C 29.34375 107.257812 28.984375 106.460938 28.421875 105.867188 C 27.828125 105.289062 27.03125 104.914062 26.140625 104.914062 C 25.269531 104.914062 24.472656 105.289062 23.878906 105.867188 C 23.285156 106.445312 22.925781 107.257812 22.925781 108.128906 Z M 44.425781 99.417969 C 44.425781 101.152344 45.816406 102.539062 47.535156 102.539062 C 49.269531 102.539062 50.65625 101.152344 50.65625 99.417969 L 50.65625 91.453125 C 50.65625 89.738281 49.269531 88.347656 47.535156 88.347656 C 45.816406 88.347656 44.425781 89.738281 44.425781 91.453125 Z M 44.425781 82.664062 C 44.425781 84.378906 45.816406 85.785156 47.535156 85.785156 C 49.269531 85.785156 50.65625 84.378906 50.65625 82.664062 L 50.65625 75.527344 C 50.65625 71.746094 49.113281 68.28125 46.597656 65.78125 C 44.097656 63.285156 40.632812 61.722656 36.839844 61.722656 C 33.042969 61.722656 29.59375 63.269531 27.09375 65.78125 C 24.597656 68.296875 23.035156 71.746094 23.035156 75.527344 L 23.035156 82.664062 C 23.035156 84.378906 24.425781 85.785156 26.140625 85.785156 C 27.875 85.785156 29.265625 84.378906 29.265625 82.664062 L 29.265625 75.527344 C 29.265625 73.449219 30.125 71.5625 31.5 70.1875 C 32.871094 68.8125 34.761719 67.953125 36.839844 67.953125 C 38.929688 67.953125 40.820312 68.8125 42.195312 70.1875 C 43.570312 71.5625 44.425781 73.449219 44.425781 75.527344 Z M 55.921875 108.128906 C 55.921875 109.863281 57.324219 111.253906 59.042969 111.253906 C 60.761719 111.253906 62.164062 109.863281 62.164062 108.128906 L 62.164062 96.261719 C 62.164062 94.546875 60.761719 93.15625 59.042969 93.15625 C 57.324219 93.15625 55.921875 94.546875 55.921875 96.261719 Z M 55.921875 87.472656 C 55.921875 89.191406 57.324219 90.578125 59.042969 90.578125 C 60.761719 90.578125 62.164062 89.191406 62.164062 87.472656 L 62.164062 75.527344 C 62.164062 68.5625 59.308594 62.222656 54.734375 57.632812 C 50.140625 53.042969 43.804688 50.199219 36.824219 50.199219 C 29.84375 50.199219 23.519531 53.042969 18.929688 57.632812 C 14.335938 62.222656 11.496094 68.5625 11.496094 75.527344 L 11.496094 87.472656 C 11.496094 89.191406 12.886719 90.578125 14.617188 90.578125 C 16.335938 90.578125 17.726562 89.191406 17.726562 87.472656 L 17.726562 75.527344 C 17.726562 70.28125 19.863281 65.519531 23.332031 62.050781 C 26.796875 58.585938 31.5625 56.445312 36.808594 56.445312 C 42.070312 56.445312 46.847656 58.585938 50.296875 62.050781 C 53.75 65.519531 55.890625 70.28125 55.890625 75.527344 L 55.890625 87.472656 Z M 55.921875 87.472656 " fill-opacity="1" fill-rule="nonzero"/></g></svg>