<svg xmlns="http://www.w3.org/2000/svg" xmlns:xlink="http://www.w3.org/1999/xlink" width="500" zoomAndPan="magnify" viewBox="0 0 375 374.999991" height="500" preserveAspectRatio="xMidYMid meet" version="1.0"><defs><clipPath id="fe170fa1d5"><path d="M 45.953125 37.5 L 328.703125 37.5 L 328.703125 337.5 L 45.953125 337.5 Z M 45.953125 37.5 " clip-rule="nonzero"/></clipPath></defs><g clip-path="url(#fe170fa1d5)"><path fill="#0048e8" d="M 305.097656 325.5 C 305.097656 332.160156 310.4375 337.5 317.097656 337.5 C 323.699219 337.5 329.039062 332.160156 329.039062 325.5 L 329.039062 179.039062 C 329.039062 140.101562 313.199219 104.699219 287.519531 79.019531 C 261.898438 53.398438 226.496094 37.5 187.496094 37.5 C 148.496094 37.5 113.097656 53.398438 87.476562 79.019531 C 61.796875 104.640625 45.957031 140.039062 45.957031 179.039062 L 45.957031 206.460938 C 45.957031 213.058594 51.296875 218.460938 57.957031 218.460938 C 64.558594 218.460938 69.898438 213.058594 69.898438 206.460938 L 69.898438 179.039062 C 69.898438 146.640625 83.15625 117.300781 104.398438 95.941406 C 125.699219 74.699219 155.097656 61.5 187.496094 61.5 C 219.957031 61.5 249.296875 74.699219 270.65625 95.941406 C 291.898438 117.300781 305.097656 146.640625 305.097656 179.039062 Z M 158.398438 240.238281 C 158.398438 233.640625 153.058594 228.300781 146.398438 228.300781 C 139.796875 228.300781 134.457031 233.640625 134.457031 240.238281 L 134.457031 270.839844 C 134.457031 277.5 139.796875 282.839844 146.398438 282.839844 C 153.058594 282.839844 158.398438 277.5 158.398438 270.839844 Z M 114.175781 258.660156 C 114.175781 252.058594 108.835938 246.71875 102.238281 246.71875 C 95.578125 246.71875 90.238281 252.058594 90.238281 258.660156 L 90.238281 304.261719 C 90.238281 310.921875 95.578125 316.261719 102.238281 316.261719 C 108.835938 316.261719 114.175781 310.921875 114.175781 304.261719 Z M 69.898438 240.238281 C 69.898438 233.640625 64.558594 228.300781 57.957031 228.300781 C 51.296875 228.300781 45.957031 233.640625 45.957031 240.238281 L 45.957031 325.5 C 45.957031 332.160156 51.296875 337.5 57.957031 337.5 C 64.558594 337.5 69.898438 332.160156 69.898438 325.5 Z M 216.238281 304.320312 C 216.238281 307.738281 217.617188 310.859375 219.898438 313.078125 C 222.117188 315.300781 225.175781 316.621094 228.597656 316.621094 C 232.019531 316.621094 235.136719 315.238281 237.296875 313.078125 C 239.578125 310.800781 240.957031 307.738281 240.957031 304.320312 C 240.957031 300.960938 239.578125 297.898438 237.296875 295.621094 C 235.078125 293.398438 232.019531 291.960938 228.597656 291.960938 C 225.175781 291.960938 222.058594 293.398438 219.898438 295.621094 C 217.617188 297.839844 216.238281 300.960938 216.238281 304.320312 Z M 134.039062 304.320312 C 134.039062 307.738281 135.417969 310.859375 137.699219 313.078125 C 139.976562 315.300781 143.039062 316.621094 146.398438 316.621094 C 149.816406 316.621094 152.9375 315.238281 155.15625 313.078125 C 157.378906 310.800781 158.699219 307.738281 158.699219 304.320312 C 158.699219 300.960938 157.316406 297.898438 155.15625 295.621094 C 152.878906 293.398438 149.816406 291.960938 146.398438 291.960938 C 143.039062 291.960938 139.976562 293.398438 137.699219 295.621094 C 135.417969 297.839844 134.039062 300.960938 134.039062 304.320312 Z M 216.65625 270.839844 C 216.65625 277.5 221.996094 282.839844 228.597656 282.839844 C 235.257812 282.839844 240.597656 277.5 240.597656 270.839844 L 240.597656 240.238281 C 240.597656 233.640625 235.257812 228.300781 228.597656 228.300781 C 221.996094 228.300781 216.65625 233.640625 216.65625 240.238281 Z M 216.65625 206.460938 C 216.65625 213.058594 221.996094 218.460938 228.597656 218.460938 C 235.257812 218.460938 240.597656 213.058594 240.597656 206.460938 L 240.597656 179.039062 C 240.597656 164.519531 234.65625 151.199219 224.996094 141.601562 C 215.398438 132 202.078125 126 187.496094 126 C 172.917969 126 159.65625 131.941406 150.058594 141.601562 C 140.457031 151.261719 134.457031 164.519531 134.457031 179.039062 L 134.457031 206.460938 C 134.457031 213.058594 139.796875 218.460938 146.398438 218.460938 C 153.058594 218.460938 158.398438 213.058594 158.398438 206.460938 L 158.398438 179.039062 C 158.398438 171.058594 161.699219 163.800781 166.976562 158.519531 C 172.257812 153.238281 179.519531 149.941406 187.496094 149.941406 C 195.539062 149.941406 202.796875 153.238281 208.078125 158.519531 C 213.359375 163.800781 216.65625 171.058594 216.65625 179.039062 Z M 260.816406 304.320312 C 260.816406 310.980469 266.21875 316.320312 272.816406 316.320312 C 279.417969 316.320312 284.816406 310.980469 284.816406 304.320312 L 284.816406 258.71875 C 284.816406 252.121094 279.417969 246.78125 272.816406 246.78125 C 266.21875 246.78125 260.816406 252.121094 260.816406 258.71875 Z M 260.816406 224.941406 C 260.816406 231.539062 266.21875 236.878906 272.816406 236.878906 C 279.417969 236.878906 284.816406 231.539062 284.816406 224.941406 L 284.816406 179.039062 C 284.816406 152.28125 273.835938 127.921875 256.257812 110.28125 C 238.617188 92.640625 214.257812 81.71875 187.4375 81.71875 C 160.617188 81.71875 136.316406 92.640625 118.675781 110.28125 C 101.039062 127.921875 90.117188 152.28125 90.117188 179.039062 L 90.117188 224.941406 C 90.117188 231.539062 95.457031 236.878906 102.117188 236.878906 C 108.71875 236.878906 114.058594 231.539062 114.058594 224.941406 L 114.058594 179.039062 C 114.058594 158.878906 122.277344 140.578125 135.597656 127.261719 C 148.917969 113.941406 167.21875 105.71875 187.378906 105.71875 C 207.597656 105.71875 225.957031 113.941406 239.21875 127.261719 C 252.476562 140.578125 260.699219 158.878906 260.699219 179.039062 L 260.699219 224.941406 Z M 260.816406 224.941406 " fill-opacity="1" fill-rule="nonzero"/></g></svg>