<svg xmlns="http://www.w3.org/2000/svg" xmlns:xlink="http://www.w3.org/1999/xlink" width="151" zoomAndPan="magnify" viewBox="0 0 113.25 177.749994" height="237" preserveAspectRatio="xMidYMid meet" version="1.0"><defs><g/><clipPath id="c4045b2d3d"><path d="M 0 0.460938 L 112.484375 0.460938 L 112.484375 119.671875 L 0 119.671875 Z M 0 0.460938 " clip-rule="nonzero"/></clipPath></defs><g fill="#152039" fill-opacity="1"><g transform="translate(28.494394, 151.40186)"><g><path d="M 9.328125 0.25 C 7.660156 0.25 6.160156 -0.0664062 4.828125 -0.703125 C 3.503906 -1.335938 2.460938 -2.296875 1.703125 -3.578125 C 0.941406 -4.867188 0.5625 -6.472656 0.5625 -8.390625 C 0.5625 -10.265625 0.9375 -11.863281 1.6875 -13.1875 C 2.4375 -14.507812 3.472656 -15.519531 4.796875 -16.21875 C 6.128906 -16.925781 7.640625 -17.28125 9.328125 -17.28125 C 11.015625 -17.28125 12.507812 -16.925781 13.8125 -16.21875 C 15.125 -15.519531 16.15625 -14.507812 16.90625 -13.1875 C 17.65625 -11.863281 18.03125 -10.265625 18.03125 -8.390625 C 18.03125 -6.472656 17.65625 -4.867188 16.90625 -3.578125 C 16.15625 -2.296875 15.117188 -1.335938 13.796875 -0.703125 C 12.484375 -0.0664062 10.992188 0.25 9.328125 0.25 Z M 9.328125 -3.4375 C 10.554688 -3.4375 11.570312 -3.875 12.375 -4.75 C 13.175781 -5.632812 13.578125 -6.898438 13.578125 -8.546875 C 13.578125 -10.109375 13.179688 -11.335938 12.390625 -12.234375 C 11.597656 -13.128906 10.578125 -13.578125 9.328125 -13.578125 C 8.054688 -13.578125 7.023438 -13.128906 6.234375 -12.234375 C 5.453125 -11.335938 5.0625 -10.109375 5.0625 -8.546875 C 5.0625 -6.898438 5.460938 -5.632812 6.265625 -4.75 C 7.078125 -3.875 8.097656 -3.4375 9.328125 -3.4375 Z M 9.328125 -3.4375 "/></g></g></g><g fill="#152039" fill-opacity="1"><g transform="translate(47.082316, 151.40186)"><g><path d="M 3.46875 0.125 C 3.238281 0.125 2.929688 0.113281 2.546875 0.09375 C 2.160156 0.0703125 1.84375 0.0390625 1.59375 0 C 1.113281 -0.101562 0.875 -0.394531 0.875 -0.875 C 0.875 -2.6875 0.882812 -4.566406 0.90625 -6.515625 C 0.925781 -8.472656 0.953125 -10.390625 0.984375 -12.265625 C 1.015625 -14.140625 1.066406 -15.894531 1.140625 -17.53125 C 1.210938 -19.175781 1.289062 -20.582031 1.375 -21.75 C 1.4375 -22.207031 1.695312 -22.46875 2.15625 -22.53125 C 2.382812 -22.570312 2.644531 -22.601562 2.9375 -22.625 C 3.226562 -22.644531 3.5 -22.65625 3.75 -22.65625 C 4.039062 -22.65625 4.382812 -22.644531 4.78125 -22.625 C 5.1875 -22.601562 5.492188 -22.570312 5.703125 -22.53125 C 5.929688 -22.507812 6.113281 -22.410156 6.25 -22.234375 C 6.382812 -22.054688 6.429688 -21.851562 6.390625 -21.625 C 6.304688 -20.9375 6.195312 -20.050781 6.0625 -18.96875 C 5.925781 -17.882812 5.804688 -16.757812 5.703125 -15.59375 C 5.597656 -14.4375 5.546875 -13.398438 5.546875 -12.484375 C 5.546875 -11.960938 5.679688 -11.535156 5.953125 -11.203125 C 6.222656 -10.867188 6.546875 -10.703125 6.921875 -10.703125 C 7.878906 -10.703125 8.769531 -10.96875 9.59375 -11.5 C 10.414062 -12.03125 11.097656 -12.71875 11.640625 -13.5625 C 12.179688 -14.40625 12.484375 -15.300781 12.546875 -16.25 C 12.546875 -16.664062 12.785156 -16.925781 13.265625 -17.03125 C 13.554688 -17.070312 13.875 -17.101562 14.21875 -17.125 C 14.5625 -17.144531 14.859375 -17.15625 15.109375 -17.15625 C 15.335938 -17.15625 15.582031 -17.148438 15.84375 -17.140625 C 16.113281 -17.128906 16.394531 -17.09375 16.6875 -17.03125 C 17.207031 -16.925781 17.457031 -16.664062 17.4375 -16.25 C 17.414062 -15.007812 17.21875 -13.921875 16.84375 -12.984375 C 16.46875 -12.046875 15.804688 -11.273438 14.859375 -10.671875 C 13.921875 -10.066406 12.597656 -9.628906 10.890625 -9.359375 C 10.617188 -9.316406 10.484375 -9.222656 10.484375 -9.078125 C 10.484375 -8.929688 10.617188 -8.835938 10.890625 -8.796875 C 12.765625 -8.566406 14.222656 -8.125 15.265625 -7.46875 C 16.316406 -6.8125 17.078125 -5.925781 17.546875 -4.8125 C 18.015625 -3.707031 18.3125 -2.351562 18.4375 -0.75 C 18.457031 -0.332031 18.195312 -0.0703125 17.65625 0.03125 C 17.34375 0.0703125 17.046875 0.0976562 16.765625 0.109375 C 16.484375 0.117188 16.25 0.125 16.0625 0.125 C 15.832031 0.125 15.5 0.117188 15.0625 0.109375 C 14.632812 0.0976562 14.242188 0.0703125 13.890625 0.03125 C 13.410156 -0.0703125 13.148438 -0.320312 13.109375 -0.71875 C 13.066406 -1.71875 12.84375 -2.617188 12.4375 -3.421875 C 12.03125 -4.222656 11.519531 -4.910156 10.90625 -5.484375 C 10.289062 -6.066406 9.625 -6.515625 8.90625 -6.828125 C 8.1875 -7.140625 7.484375 -7.296875 6.796875 -7.296875 C 6.460938 -7.296875 6.175781 -7.160156 5.9375 -6.890625 C 5.695312 -6.617188 5.566406 -6.273438 5.546875 -5.859375 C 5.523438 -5.015625 5.539062 -4.195312 5.59375 -3.40625 C 5.644531 -2.613281 5.734375 -1.769531 5.859375 -0.875 C 5.898438 -0.625 5.847656 -0.421875 5.703125 -0.265625 C 5.554688 -0.109375 5.363281 -0.0078125 5.125 0.03125 C 4.894531 0.0507812 4.617188 0.0703125 4.296875 0.09375 C 3.972656 0.113281 3.695312 0.125 3.46875 0.125 Z M 3.46875 0.125 "/></g></g></g><g fill="#152039" fill-opacity="1"><g transform="translate(66.139633, 151.40186)"><g><path d="M 5.859375 0.25 C 4.265625 0.25 2.984375 -0.125 2.015625 -0.875 C 1.046875 -1.625 0.5625 -2.882812 0.5625 -4.65625 C 0.5625 -6.226562 1.117188 -7.46875 2.234375 -8.375 C 3.347656 -9.28125 4.890625 -9.898438 6.859375 -10.234375 C 8.648438 -10.484375 9.910156 -10.738281 10.640625 -11 C 11.367188 -11.257812 11.734375 -11.671875 11.734375 -12.234375 C 11.734375 -12.566406 11.503906 -12.878906 11.046875 -13.171875 C 10.585938 -13.460938 9.804688 -13.609375 8.703125 -13.609375 C 7.765625 -13.609375 6.789062 -13.460938 5.78125 -13.171875 C 4.78125 -12.878906 3.90625 -12.398438 3.15625 -11.734375 C 2.925781 -11.398438 2.660156 -11.304688 2.359375 -11.453125 C 2.054688 -11.597656 1.914062 -11.898438 1.9375 -12.359375 C 1.957031 -12.585938 1.988281 -12.90625 2.03125 -13.3125 C 2.070312 -13.71875 2.117188 -14.128906 2.171875 -14.546875 C 2.222656 -14.960938 2.257812 -15.273438 2.28125 -15.484375 C 2.34375 -15.992188 2.550781 -16.320312 2.90625 -16.46875 C 4.644531 -17.007812 6.523438 -17.28125 8.546875 -17.28125 C 10.941406 -17.28125 12.800781 -16.757812 14.125 -15.71875 C 15.457031 -14.6875 16.226562 -13.035156 16.4375 -10.765625 C 16.5 -9.972656 16.5625 -8.992188 16.625 -7.828125 C 16.6875 -6.660156 16.75 -5.46875 16.8125 -4.25 C 16.875 -3.039062 16.925781 -1.957031 16.96875 -1 C 16.96875 -0.457031 16.675781 -0.132812 16.09375 -0.03125 C 15.882812 0.03125 15.617188 0.0703125 15.296875 0.09375 C 14.984375 0.113281 14.679688 0.125 14.390625 0.125 C 14.140625 0.125 13.820312 0.113281 13.4375 0.09375 C 13.050781 0.0703125 12.734375 0.03125 12.484375 -0.03125 C 12.210938 -0.0703125 11.992188 -0.191406 11.828125 -0.390625 C 11.660156 -0.585938 11.597656 -0.820312 11.640625 -1.09375 C 11.679688 -1.300781 11.726562 -1.570312 11.78125 -1.90625 C 11.832031 -2.238281 11.867188 -2.570312 11.890625 -2.90625 C 11.929688 -3.195312 11.863281 -3.367188 11.6875 -3.421875 C 11.507812 -3.472656 11.359375 -3.363281 11.234375 -3.09375 C 10.753906 -2.070312 10.015625 -1.257812 9.015625 -0.65625 C 8.015625 -0.0507812 6.960938 0.25 5.859375 0.25 Z M 7.984375 -3.625 C 8.503906 -3.625 9.050781 -3.757812 9.625 -4.03125 C 10.195312 -4.300781 10.679688 -4.691406 11.078125 -5.203125 C 11.472656 -5.722656 11.671875 -6.347656 11.671875 -7.078125 C 11.671875 -7.578125 11.519531 -7.988281 11.21875 -8.3125 C 10.914062 -8.632812 10.398438 -8.796875 9.671875 -8.796875 C 8.941406 -8.796875 8.242188 -8.660156 7.578125 -8.390625 C 6.910156 -8.117188 6.367188 -7.75 5.953125 -7.28125 C 5.535156 -6.8125 5.328125 -6.253906 5.328125 -5.609375 C 5.328125 -4.890625 5.535156 -4.378906 5.953125 -4.078125 C 6.367188 -3.773438 7.046875 -3.625 7.984375 -3.625 Z M 7.984375 -3.625 "/></g></g></g><g fill="#152039" fill-opacity="1"><g transform="translate(19.158654, 170.21977)"><g><path d="M 5.859375 -8.03125 L 5.859375 0 L 4.921875 0 L 4.921875 -0.921875 L 4.484375 -0.3125 C 4.328125 -0.164062 4.109375 -0.0507812 3.828125 0.03125 C 3.546875 0.113281 3.253906 0.15625 2.953125 0.15625 C 2.398438 0.15625 1.925781 0.0234375 1.53125 -0.234375 C 1.132812 -0.492188 0.832031 -0.847656 0.625 -1.296875 C 0.425781 -1.742188 0.328125 -2.25 0.328125 -2.8125 C 0.328125 -3.519531 0.457031 -4.101562 0.71875 -4.5625 C 0.976562 -5.03125 1.320312 -5.375 1.75 -5.59375 C 2.1875 -5.820312 2.65625 -5.9375 3.15625 -5.9375 C 3.394531 -5.9375 3.648438 -5.90625 3.921875 -5.84375 C 4.191406 -5.78125 4.398438 -5.6875 4.546875 -5.5625 L 4.921875 -4.984375 L 4.921875 -8.03125 Z M 3.109375 -0.5625 C 3.421875 -0.5625 3.710938 -0.632812 3.984375 -0.78125 C 4.265625 -0.9375 4.488281 -1.179688 4.65625 -1.515625 C 4.832031 -1.847656 4.921875 -2.289062 4.921875 -2.84375 L 4.921875 -3.15625 C 4.921875 -3.65625 4.832031 -4.054688 4.65625 -4.359375 C 4.476562 -4.660156 4.253906 -4.878906 3.984375 -5.015625 C 3.710938 -5.148438 3.4375 -5.21875 3.15625 -5.21875 C 2.644531 -5.21875 2.21875 -5.019531 1.875 -4.625 C 1.53125 -4.238281 1.359375 -3.671875 1.359375 -2.921875 C 1.359375 -2.484375 1.421875 -2.085938 1.546875 -1.734375 C 1.679688 -1.378906 1.875 -1.09375 2.125 -0.875 C 2.382812 -0.664062 2.710938 -0.5625 3.109375 -0.5625 Z M 3.109375 -0.5625 "/></g></g></g><g fill="#152039" fill-opacity="1"><g transform="translate(26.202227, 170.21977)"><g><path d="M 5.5625 -3.0625 C 5.5625 -3.019531 5.5625 -2.957031 5.5625 -2.875 C 5.5625 -2.800781 5.550781 -2.710938 5.53125 -2.609375 L 1.34375 -2.609375 C 1.375 -2.097656 1.46875 -1.691406 1.625 -1.390625 C 1.78125 -1.097656 1.976562 -0.882812 2.21875 -0.75 C 2.457031 -0.625 2.71875 -0.5625 3 -0.5625 C 3.382812 -0.5625 3.710938 -0.675781 3.984375 -0.90625 C 4.265625 -1.132812 4.4375 -1.457031 4.5 -1.875 L 5.484375 -1.875 C 5.410156 -1.40625 5.25 -1.019531 5 -0.71875 C 4.75 -0.414062 4.445312 -0.191406 4.09375 -0.046875 C 3.738281 0.0859375 3.359375 0.15625 2.953125 0.15625 C 2.453125 0.15625 2.003906 0.046875 1.609375 -0.171875 C 1.210938 -0.398438 0.898438 -0.738281 0.671875 -1.1875 C 0.441406 -1.632812 0.328125 -2.195312 0.328125 -2.875 C 0.328125 -3.5 0.445312 -4.039062 0.6875 -4.5 C 0.925781 -4.957031 1.253906 -5.3125 1.671875 -5.5625 C 2.085938 -5.8125 2.554688 -5.9375 3.078125 -5.9375 C 3.609375 -5.9375 4.054688 -5.8125 4.421875 -5.5625 C 4.796875 -5.320312 5.078125 -4.984375 5.265625 -4.546875 C 5.460938 -4.117188 5.5625 -3.625 5.5625 -3.0625 Z M 3.0625 -5.21875 C 2.601562 -5.21875 2.21875 -5.054688 1.90625 -4.734375 C 1.59375 -4.421875 1.410156 -3.953125 1.359375 -3.328125 L 4.609375 -3.328125 C 4.566406 -3.929688 4.414062 -4.394531 4.15625 -4.71875 C 3.894531 -5.050781 3.53125 -5.21875 3.0625 -5.21875 Z M 3.0625 -5.21875 "/></g></g></g><g fill="#152039" fill-opacity="1"><g transform="translate(32.525087, 170.21977)"><g><path d="M 2.484375 -5.9375 C 3.140625 -5.9375 3.644531 -5.769531 4 -5.4375 C 4.351562 -5.101562 4.5625 -4.671875 4.625 -4.140625 L 3.640625 -4.140625 C 3.566406 -4.484375 3.425781 -4.75 3.21875 -4.9375 C 3.019531 -5.125 2.75 -5.21875 2.40625 -5.21875 C 2.082031 -5.21875 1.84375 -5.132812 1.6875 -4.96875 C 1.53125 -4.8125 1.453125 -4.609375 1.453125 -4.359375 C 1.453125 -4.066406 1.5625 -3.847656 1.78125 -3.703125 C 2.007812 -3.566406 2.320312 -3.445312 2.71875 -3.34375 C 3.382812 -3.164062 3.878906 -2.9375 4.203125 -2.65625 C 4.523438 -2.375 4.6875 -1.984375 4.6875 -1.484375 C 4.6875 -1.117188 4.59375 -0.8125 4.40625 -0.5625 C 4.21875 -0.320312 3.957031 -0.140625 3.625 -0.015625 C 3.300781 0.0976562 2.9375 0.15625 2.53125 0.15625 C 1.9375 0.15625 1.429688 0.0078125 1.015625 -0.28125 C 0.597656 -0.570312 0.347656 -1.046875 0.265625 -1.703125 L 1.25 -1.703125 C 1.320312 -1.285156 1.476562 -0.988281 1.71875 -0.8125 C 1.96875 -0.644531 2.257812 -0.5625 2.59375 -0.5625 C 2.90625 -0.5625 3.171875 -0.632812 3.390625 -0.78125 C 3.609375 -0.925781 3.71875 -1.132812 3.71875 -1.40625 C 3.71875 -1.6875 3.613281 -1.910156 3.40625 -2.078125 C 3.195312 -2.242188 2.847656 -2.390625 2.359375 -2.515625 C 2.015625 -2.617188 1.703125 -2.738281 1.421875 -2.875 C 1.140625 -3.007812 0.910156 -3.1875 0.734375 -3.40625 C 0.566406 -3.632812 0.484375 -3.914062 0.484375 -4.25 C 0.484375 -4.78125 0.664062 -5.191406 1.03125 -5.484375 C 1.40625 -5.785156 1.890625 -5.9375 2.484375 -5.9375 Z M 2.484375 -5.9375 "/></g></g></g><g fill="#152039" fill-opacity="1"><g transform="translate(37.865159, 170.21977)"><g><path d="M 1.28125 -7.6875 C 1.445312 -7.6875 1.585938 -7.628906 1.703125 -7.515625 C 1.816406 -7.398438 1.875 -7.257812 1.875 -7.09375 C 1.875 -6.925781 1.816406 -6.78125 1.703125 -6.65625 C 1.585938 -6.539062 1.445312 -6.484375 1.28125 -6.484375 C 1.113281 -6.484375 0.96875 -6.539062 0.84375 -6.65625 C 0.726562 -6.78125 0.671875 -6.925781 0.671875 -7.09375 C 0.671875 -7.257812 0.726562 -7.398438 0.84375 -7.515625 C 0.96875 -7.628906 1.113281 -7.6875 1.28125 -7.6875 Z M 1.75 0 L 0.8125 0 L 0.8125 -5.78125 L 1.75 -5.78125 Z M 1.75 0 "/></g></g></g><g fill="#152039" fill-opacity="1"><g transform="translate(40.791931, 170.21977)"><g><path d="M 5.859375 -5.78125 L 5.859375 -1.421875 C 5.859375 -1.234375 5.859375 -1.035156 5.859375 -0.828125 C 5.859375 -0.628906 5.859375 -0.453125 5.859375 -0.296875 C 5.828125 0.546875 5.566406 1.1875 5.078125 1.625 C 4.597656 2.070312 3.941406 2.296875 3.109375 2.296875 C 2.285156 2.296875 1.660156 2.128906 1.234375 1.796875 C 0.804688 1.460938 0.566406 0.988281 0.515625 0.375 L 0.5 0.265625 L 1.453125 0.265625 L 1.46875 0.375 C 1.5 0.726562 1.65625 1.015625 1.9375 1.234375 C 2.21875 1.460938 2.609375 1.578125 3.109375 1.578125 C 3.679688 1.578125 4.117188 1.421875 4.421875 1.109375 C 4.722656 0.796875 4.890625 0.359375 4.921875 -0.203125 C 4.921875 -0.335938 4.921875 -0.453125 4.921875 -0.546875 C 4.921875 -0.648438 4.921875 -0.742188 4.921875 -0.828125 L 4.921875 -0.921875 L 4.484375 -0.3125 C 4.328125 -0.164062 4.109375 -0.0507812 3.828125 0.03125 C 3.546875 0.113281 3.253906 0.15625 2.953125 0.15625 C 2.398438 0.15625 1.925781 0.0234375 1.53125 -0.234375 C 1.132812 -0.492188 0.832031 -0.847656 0.625 -1.296875 C 0.425781 -1.742188 0.328125 -2.25 0.328125 -2.8125 C 0.328125 -3.519531 0.457031 -4.101562 0.71875 -4.5625 C 0.976562 -5.03125 1.320312 -5.375 1.75 -5.59375 C 2.1875 -5.820312 2.65625 -5.9375 3.15625 -5.9375 C 3.394531 -5.9375 3.648438 -5.90625 3.921875 -5.84375 C 4.191406 -5.78125 4.398438 -5.6875 4.546875 -5.5625 L 4.921875 -4.984375 L 4.921875 -5.78125 Z M 3.109375 -0.5625 C 3.421875 -0.5625 3.710938 -0.632812 3.984375 -0.78125 C 4.265625 -0.9375 4.488281 -1.179688 4.65625 -1.515625 C 4.832031 -1.847656 4.921875 -2.289062 4.921875 -2.84375 L 4.921875 -3.15625 C 4.921875 -3.65625 4.832031 -4.054688 4.65625 -4.359375 C 4.476562 -4.660156 4.253906 -4.878906 3.984375 -5.015625 C 3.710938 -5.148438 3.4375 -5.21875 3.15625 -5.21875 C 2.644531 -5.21875 2.21875 -5.019531 1.875 -4.625 C 1.53125 -4.238281 1.359375 -3.671875 1.359375 -2.921875 C 1.359375 -2.484375 1.421875 -2.085938 1.546875 -1.734375 C 1.679688 -1.378906 1.875 -1.09375 2.125 -0.875 C 2.382812 -0.664062 2.710938 -0.5625 3.109375 -0.5625 Z M 3.109375 -0.5625 "/></g></g></g><g fill="#152039" fill-opacity="1"><g transform="translate(47.835506, 170.21977)"><g><path d="M 5.671875 -4.25 C 5.691406 -4.101562 5.703125 -3.957031 5.703125 -3.8125 C 5.703125 -3.675781 5.703125 -3.488281 5.703125 -3.25 L 5.703125 0 L 4.765625 0 L 4.765625 -3.1875 C 4.765625 -3.332031 4.765625 -3.46875 4.765625 -3.59375 C 4.765625 -3.726562 4.753906 -3.867188 4.734375 -4.015625 C 4.710938 -4.359375 4.597656 -4.640625 4.390625 -4.859375 C 4.191406 -5.085938 3.867188 -5.203125 3.421875 -5.203125 C 3.117188 -5.203125 2.835938 -5.117188 2.578125 -4.953125 C 2.328125 -4.785156 2.125 -4.503906 1.96875 -4.109375 C 1.820312 -3.722656 1.75 -3.203125 1.75 -2.546875 L 1.75 0 L 0.8125 0 L 0.8125 -5.78125 L 1.75 -5.78125 L 1.75 -4.796875 L 2.109375 -5.46875 C 2.359375 -5.65625 2.597656 -5.78125 2.828125 -5.84375 C 3.054688 -5.90625 3.316406 -5.9375 3.609375 -5.9375 C 4.242188 -5.9375 4.734375 -5.78125 5.078125 -5.46875 C 5.429688 -5.164062 5.628906 -4.757812 5.671875 -4.25 Z M 5.671875 -4.25 "/></g></g></g><g fill="#152039" fill-opacity="1"><g transform="translate(54.638846, 170.21977)"><g/></g></g><g fill="#152039" fill-opacity="1"><g transform="translate(57.325374, 170.21977)"><g><path d="M 2.484375 -5.9375 C 3.140625 -5.9375 3.644531 -5.769531 4 -5.4375 C 4.351562 -5.101562 4.5625 -4.671875 4.625 -4.140625 L 3.640625 -4.140625 C 3.566406 -4.484375 3.425781 -4.75 3.21875 -4.9375 C 3.019531 -5.125 2.75 -5.21875 2.40625 -5.21875 C 2.082031 -5.21875 1.84375 -5.132812 1.6875 -4.96875 C 1.53125 -4.8125 1.453125 -4.609375 1.453125 -4.359375 C 1.453125 -4.066406 1.5625 -3.847656 1.78125 -3.703125 C 2.007812 -3.566406 2.320312 -3.445312 2.71875 -3.34375 C 3.382812 -3.164062 3.878906 -2.9375 4.203125 -2.65625 C 4.523438 -2.375 4.6875 -1.984375 4.6875 -1.484375 C 4.6875 -1.117188 4.59375 -0.8125 4.40625 -0.5625 C 4.21875 -0.320312 3.957031 -0.140625 3.625 -0.015625 C 3.300781 0.0976562 2.9375 0.15625 2.53125 0.15625 C 1.9375 0.15625 1.429688 0.0078125 1.015625 -0.28125 C 0.597656 -0.570312 0.347656 -1.046875 0.265625 -1.703125 L 1.25 -1.703125 C 1.320312 -1.285156 1.476562 -0.988281 1.71875 -0.8125 C 1.96875 -0.644531 2.257812 -0.5625 2.59375 -0.5625 C 2.90625 -0.5625 3.171875 -0.632812 3.390625 -0.78125 C 3.609375 -0.925781 3.71875 -1.132812 3.71875 -1.40625 C 3.71875 -1.6875 3.613281 -1.910156 3.40625 -2.078125 C 3.195312 -2.242188 2.847656 -2.390625 2.359375 -2.515625 C 2.015625 -2.617188 1.703125 -2.738281 1.421875 -2.875 C 1.140625 -3.007812 0.910156 -3.1875 0.734375 -3.40625 C 0.566406 -3.632812 0.484375 -3.914062 0.484375 -4.25 C 0.484375 -4.78125 0.664062 -5.191406 1.03125 -5.484375 C 1.40625 -5.785156 1.890625 -5.9375 2.484375 -5.9375 Z M 2.484375 -5.9375 "/></g></g></g><g fill="#152039" fill-opacity="1"><g transform="translate(62.665448, 170.21977)"><g><path d="M 5.5625 -3.0625 C 5.5625 -3.019531 5.5625 -2.957031 5.5625 -2.875 C 5.5625 -2.800781 5.550781 -2.710938 5.53125 -2.609375 L 1.34375 -2.609375 C 1.375 -2.097656 1.46875 -1.691406 1.625 -1.390625 C 1.78125 -1.097656 1.976562 -0.882812 2.21875 -0.75 C 2.457031 -0.625 2.71875 -0.5625 3 -0.5625 C 3.382812 -0.5625 3.710938 -0.675781 3.984375 -0.90625 C 4.265625 -1.132812 4.4375 -1.457031 4.5 -1.875 L 5.484375 -1.875 C 5.410156 -1.40625 5.25 -1.019531 5 -0.71875 C 4.75 -0.414062 4.445312 -0.191406 4.09375 -0.046875 C 3.738281 0.0859375 3.359375 0.15625 2.953125 0.15625 C 2.453125 0.15625 2.003906 0.046875 1.609375 -0.171875 C 1.210938 -0.398438 0.898438 -0.738281 0.671875 -1.1875 C 0.441406 -1.632812 0.328125 -2.195312 0.328125 -2.875 C 0.328125 -3.5 0.445312 -4.039062 0.6875 -4.5 C 0.925781 -4.957031 1.253906 -5.3125 1.671875 -5.5625 C 2.085938 -5.8125 2.554688 -5.9375 3.078125 -5.9375 C 3.609375 -5.9375 4.054688 -5.8125 4.421875 -5.5625 C 4.796875 -5.320312 5.078125 -4.984375 5.265625 -4.546875 C 5.460938 -4.117188 5.5625 -3.625 5.5625 -3.0625 Z M 3.0625 -5.21875 C 2.601562 -5.21875 2.21875 -5.054688 1.90625 -4.734375 C 1.59375 -4.421875 1.410156 -3.953125 1.359375 -3.328125 L 4.609375 -3.328125 C 4.566406 -3.929688 4.414062 -4.394531 4.15625 -4.71875 C 3.894531 -5.050781 3.53125 -5.21875 3.0625 -5.21875 Z M 3.0625 -5.21875 "/></g></g></g><g fill="#152039" fill-opacity="1"><g transform="translate(68.988309, 170.21977)"><g><path d="M 5.859375 -5.78125 L 5.859375 -1.421875 C 5.859375 -1.234375 5.859375 -1.035156 5.859375 -0.828125 C 5.859375 -0.628906 5.859375 -0.453125 5.859375 -0.296875 C 5.828125 0.546875 5.566406 1.1875 5.078125 1.625 C 4.597656 2.070312 3.941406 2.296875 3.109375 2.296875 C 2.285156 2.296875 1.660156 2.128906 1.234375 1.796875 C 0.804688 1.460938 0.566406 0.988281 0.515625 0.375 L 0.5 0.265625 L 1.453125 0.265625 L 1.46875 0.375 C 1.5 0.726562 1.65625 1.015625 1.9375 1.234375 C 2.21875 1.460938 2.609375 1.578125 3.109375 1.578125 C 3.679688 1.578125 4.117188 1.421875 4.421875 1.109375 C 4.722656 0.796875 4.890625 0.359375 4.921875 -0.203125 C 4.921875 -0.335938 4.921875 -0.453125 4.921875 -0.546875 C 4.921875 -0.648438 4.921875 -0.742188 4.921875 -0.828125 L 4.921875 -0.921875 L 4.484375 -0.3125 C 4.328125 -0.164062 4.109375 -0.0507812 3.828125 0.03125 C 3.546875 0.113281 3.253906 0.15625 2.953125 0.15625 C 2.398438 0.15625 1.925781 0.0234375 1.53125 -0.234375 C 1.132812 -0.492188 0.832031 -0.847656 0.625 -1.296875 C 0.425781 -1.742188 0.328125 -2.25 0.328125 -2.8125 C 0.328125 -3.519531 0.457031 -4.101562 0.71875 -4.5625 C 0.976562 -5.03125 1.320312 -5.375 1.75 -5.59375 C 2.1875 -5.820312 2.65625 -5.9375 3.15625 -5.9375 C 3.394531 -5.9375 3.648438 -5.90625 3.921875 -5.84375 C 4.191406 -5.78125 4.398438 -5.6875 4.546875 -5.5625 L 4.921875 -4.984375 L 4.921875 -5.78125 Z M 3.109375 -0.5625 C 3.421875 -0.5625 3.710938 -0.632812 3.984375 -0.78125 C 4.265625 -0.9375 4.488281 -1.179688 4.65625 -1.515625 C 4.832031 -1.847656 4.921875 -2.289062 4.921875 -2.84375 L 4.921875 -3.15625 C 4.921875 -3.65625 4.832031 -4.054688 4.65625 -4.359375 C 4.476562 -4.660156 4.253906 -4.878906 3.984375 -5.015625 C 3.710938 -5.148438 3.4375 -5.21875 3.15625 -5.21875 C 2.644531 -5.21875 2.21875 -5.019531 1.875 -4.625 C 1.53125 -4.238281 1.359375 -3.671875 1.359375 -2.921875 C 1.359375 -2.484375 1.421875 -2.085938 1.546875 -1.734375 C 1.679688 -1.378906 1.875 -1.09375 2.125 -0.875 C 2.382812 -0.664062 2.710938 -0.5625 3.109375 -0.5625 Z M 3.109375 -0.5625 "/></g></g></g><g fill="#152039" fill-opacity="1"><g transform="translate(76.031884, 170.21977)"><g><path d="M 5.609375 -5.78125 L 5.609375 0 L 4.671875 0 L 4.671875 -0.984375 L 4.3125 -0.3125 C 4.0625 -0.125 3.820312 0 3.59375 0.0625 C 3.363281 0.125 3.101562 0.15625 2.8125 0.15625 C 2.207031 0.15625 1.734375 0.0078125 1.390625 -0.28125 C 1.046875 -0.570312 0.84375 -0.921875 0.78125 -1.328125 C 0.757812 -1.472656 0.742188 -1.613281 0.734375 -1.75 C 0.722656 -1.894531 0.71875 -2.082031 0.71875 -2.3125 L 0.71875 -5.78125 L 1.65625 -5.78125 L 1.65625 -2.484375 C 1.65625 -2.390625 1.660156 -2.269531 1.671875 -2.125 C 1.679688 -1.976562 1.691406 -1.832031 1.703125 -1.6875 C 1.742188 -1.363281 1.878906 -1.097656 2.109375 -0.890625 C 2.335938 -0.691406 2.648438 -0.59375 3.046875 -0.59375 C 3.347656 -0.59375 3.617188 -0.675781 3.859375 -0.84375 C 4.109375 -1.007812 4.304688 -1.285156 4.453125 -1.671875 C 4.597656 -2.066406 4.671875 -2.59375 4.671875 -3.25 L 4.671875 -5.78125 Z M 5.609375 -5.78125 "/></g></g></g><g fill="#152039" fill-opacity="1"><g transform="translate(82.824299, 170.21977)"><g><path d="M 3.078125 -5.921875 C 3.234375 -5.921875 3.363281 -5.894531 3.46875 -5.84375 L 3.46875 -5.140625 C 2.976562 -5.171875 2.566406 -5.035156 2.234375 -4.734375 C 1.910156 -4.441406 1.75 -3.960938 1.75 -3.296875 L 1.75 0 L 0.8125 0 L 0.8125 -5.78125 L 1.75 -5.78125 L 1.75 -4.875 L 2.265625 -5.65625 C 2.523438 -5.832031 2.796875 -5.921875 3.078125 -5.921875 Z M 3.078125 -5.921875 "/></g></g></g><g fill="#152039" fill-opacity="1"><g transform="translate(86.755699, 170.21977)"><g><path d="M 3.203125 -5.9375 C 3.859375 -5.9375 4.398438 -5.796875 4.828125 -5.515625 C 5.253906 -5.234375 5.566406 -4.863281 5.765625 -4.40625 C 5.972656 -3.945312 6.078125 -3.441406 6.078125 -2.890625 C 6.078125 -2.359375 5.972656 -1.859375 5.765625 -1.390625 C 5.566406 -0.921875 5.253906 -0.546875 4.828125 -0.265625 C 4.398438 0.015625 3.859375 0.15625 3.203125 0.15625 C 2.546875 0.15625 2.003906 0.015625 1.578125 -0.265625 C 1.160156 -0.546875 0.847656 -0.921875 0.640625 -1.390625 C 0.429688 -1.859375 0.328125 -2.359375 0.328125 -2.890625 C 0.328125 -3.441406 0.429688 -3.945312 0.640625 -4.40625 C 0.847656 -4.863281 1.160156 -5.234375 1.578125 -5.515625 C 2.003906 -5.796875 2.546875 -5.9375 3.203125 -5.9375 Z M 3.203125 -0.5625 C 3.597656 -0.5625 3.929688 -0.660156 4.203125 -0.859375 C 4.472656 -1.066406 4.679688 -1.34375 4.828125 -1.6875 C 4.972656 -2.039062 5.046875 -2.441406 5.046875 -2.890625 C 5.046875 -3.578125 4.882812 -4.132812 4.5625 -4.5625 C 4.238281 -5 3.785156 -5.21875 3.203125 -5.21875 C 2.617188 -5.21875 2.164062 -5 1.84375 -4.5625 C 1.519531 -4.132812 1.359375 -3.578125 1.359375 -2.890625 C 1.359375 -2.441406 1.429688 -2.039062 1.578125 -1.6875 C 1.722656 -1.34375 1.929688 -1.066406 2.203125 -0.859375 C 2.472656 -0.660156 2.804688 -0.5625 3.203125 -0.5625 Z M 3.203125 -0.5625 "/></g></g></g><g clip-path="url(#c4045b2d3d)"><path fill="#0048e8" d="M 102.832031 114.746094 C 102.832031 117.390625 104.953125 119.507812 107.59375 119.507812 C 110.214844 119.507812 112.332031 117.390625 112.332031 114.746094 L 112.332031 56.628906 C 112.332031 41.175781 106.046875 27.128906 95.855469 16.9375 C 85.691406 6.769531 71.644531 0.460938 56.167969 0.460938 C 40.691406 0.460938 26.644531 6.769531 16.476562 16.9375 C 6.285156 27.101562 0 41.152344 0 56.628906 L 0 67.507812 C 0 70.128906 2.121094 72.269531 4.761719 72.269531 C 7.382812 72.269531 9.5 70.128906 9.5 67.507812 L 9.5 56.628906 C 9.5 43.769531 14.761719 32.128906 23.191406 23.652344 C 31.644531 15.222656 43.308594 9.984375 56.167969 9.984375 C 69.046875 9.984375 80.691406 15.222656 89.167969 23.652344 C 97.59375 32.128906 102.832031 43.769531 102.832031 56.628906 Z M 44.621094 80.914062 C 44.621094 78.292969 42.5 76.175781 39.855469 76.175781 C 37.238281 76.175781 35.121094 78.292969 35.121094 80.914062 L 35.121094 93.054688 C 35.121094 95.699219 37.238281 97.816406 39.855469 97.816406 C 42.5 97.816406 44.621094 95.699219 44.621094 93.054688 Z M 27.070312 88.222656 C 27.070312 85.601562 24.953125 83.484375 22.332031 83.484375 C 19.691406 83.484375 17.570312 85.601562 17.570312 88.222656 L 17.570312 106.316406 C 17.570312 108.960938 19.691406 111.078125 22.332031 111.078125 C 24.953125 111.078125 27.070312 108.960938 27.070312 106.316406 Z M 9.5 80.914062 C 9.5 78.292969 7.382812 76.175781 4.761719 76.175781 C 2.121094 76.175781 0 78.292969 0 80.914062 L 0 114.746094 C 0 117.390625 2.121094 119.507812 4.761719 119.507812 C 7.382812 119.507812 9.5 117.390625 9.5 114.746094 Z M 67.570312 106.339844 C 67.570312 107.699219 68.121094 108.9375 69.023438 109.816406 C 69.90625 110.699219 71.121094 111.222656 72.476562 111.222656 C 73.832031 111.222656 75.070312 110.675781 75.929688 109.816406 C 76.832031 108.914062 77.382812 107.699219 77.382812 106.339844 C 77.382812 105.007812 76.832031 103.792969 75.929688 102.890625 C 75.046875 102.007812 73.832031 101.4375 72.476562 101.4375 C 71.121094 101.4375 69.882812 102.007812 69.023438 102.890625 C 68.121094 103.769531 67.570312 105.007812 67.570312 106.339844 Z M 34.953125 106.339844 C 34.953125 107.699219 35.5 108.9375 36.40625 109.816406 C 37.308594 110.699219 38.523438 111.222656 39.855469 111.222656 C 41.214844 111.222656 42.453125 110.675781 43.332031 109.816406 C 44.214844 108.914062 44.738281 107.699219 44.738281 106.339844 C 44.738281 105.007812 44.191406 103.792969 43.332031 102.890625 C 42.429688 102.007812 41.214844 101.4375 39.855469 101.4375 C 38.523438 101.4375 37.308594 102.007812 36.40625 102.890625 C 35.5 103.769531 34.953125 105.007812 34.953125 106.339844 Z M 67.738281 93.054688 C 67.738281 95.699219 69.855469 97.816406 72.476562 97.816406 C 75.121094 97.816406 77.238281 95.699219 77.238281 93.054688 L 77.238281 80.914062 C 77.238281 78.292969 75.121094 76.175781 72.476562 76.175781 C 69.855469 76.175781 67.738281 78.292969 67.738281 80.914062 Z M 67.738281 67.507812 C 67.738281 70.128906 69.855469 72.269531 72.476562 72.269531 C 75.121094 72.269531 77.238281 70.128906 77.238281 67.507812 L 77.238281 56.628906 C 77.238281 50.867188 74.882812 45.578125 71.046875 41.769531 C 67.238281 37.960938 61.953125 35.578125 56.167969 35.578125 C 50.382812 35.578125 45.121094 37.9375 41.308594 41.769531 C 37.5 45.601562 35.121094 50.867188 35.121094 56.628906 L 35.121094 67.507812 C 35.121094 70.128906 37.238281 72.269531 39.855469 72.269531 C 42.5 72.269531 44.621094 70.128906 44.621094 67.507812 L 44.621094 56.628906 C 44.621094 53.460938 45.929688 50.578125 48.023438 48.484375 C 50.121094 46.390625 53 45.078125 56.167969 45.078125 C 59.355469 45.078125 62.238281 46.390625 64.332031 48.484375 C 66.429688 50.578125 67.738281 53.460938 67.738281 56.628906 Z M 85.261719 106.339844 C 85.261719 108.984375 87.40625 111.101562 90.023438 111.101562 C 92.644531 111.101562 94.785156 108.984375 94.785156 106.339844 L 94.785156 88.246094 C 94.785156 85.628906 92.644531 83.507812 90.023438 83.507812 C 87.40625 83.507812 85.261719 85.628906 85.261719 88.246094 Z M 85.261719 74.839844 C 85.261719 77.460938 87.40625 79.578125 90.023438 79.578125 C 92.644531 79.578125 94.785156 77.460938 94.785156 74.839844 L 94.785156 56.628906 C 94.785156 46.007812 90.429688 36.339844 83.453125 29.339844 C 76.453125 22.339844 66.785156 18.007812 56.144531 18.007812 C 45.5 18.007812 35.855469 22.339844 28.855469 29.339844 C 21.855469 36.339844 17.523438 46.007812 17.523438 56.628906 L 17.523438 74.839844 C 17.523438 77.460938 19.644531 79.578125 22.285156 79.578125 C 24.90625 79.578125 27.023438 77.460938 27.023438 74.839844 L 27.023438 56.628906 C 27.023438 48.628906 30.285156 41.367188 35.570312 36.078125 C 40.855469 30.792969 48.121094 27.53125 56.121094 27.53125 C 64.144531 27.53125 71.429688 30.792969 76.691406 36.078125 C 81.953125 41.367188 85.214844 48.628906 85.214844 56.628906 L 85.214844 74.839844 Z M 85.261719 74.839844 " fill-opacity="1" fill-rule="nonzero"/></g></svg>